<!-- Generated by IcoMoon.io -->
<svg version="1.1" xmlns="http://www.w3.org/2000/svg" width="32" height="32" viewBox="0 0 32 32">
<title>demand</title>
<path d="M20.229 2.667c0.707 0 1.386 0.281 1.886 0.781l3.771 3.771c0.5 0.5 0.781 1.178 0.781 1.886v17.562c0 1.473-1.194 2.667-2.667 2.667h-16c-1.473 0-2.667-1.194-2.667-2.667v-21.333c0-1.473 1.194-2.667 2.667-2.667h12.229zM18.896 4.667h-10.896c-0.327 0-0.599 0.236-0.656 0.547l-0.011 0.12v21.333c0 0.327 0.236 0.599 0.547 0.656l0.12 0.011h16c0.327 0 0.599-0.236 0.656-0.547l0.011-0.12v-16h-4.771c-0.506 0-0.925-0.376-0.991-0.864l-0.009-0.136-0-5zM20.563 21.333c0.552 0 1 0.448 1 1s-0.448 1-1 1h-8.667c-0.552 0-1-0.448-1-1s0.448-1 1-1h8.667zM16.563 16c0.552 0 1 0.448 1 1s-0.448 1-1 1h-4.667c-0.552 0-1-0.448-1-1s0.448-1 1-1h4.667zM20.896 5.058v3.609h3.604l-0.028-0.034-3.575-3.575z"></path>
</svg>
