<!-- Generated by IcoMoon.io -->
<svg version="1.1" xmlns="http://www.w3.org/2000/svg" width="32" height="32" viewBox="0 0 32 32">
<title>logout</title>
<path d="M14.994 3.667c0.552 0 1 0.448 1 1s-0.448 1-1 1h-9.106c-0.491 0-0.889 0.398-0.889 0.889v18.889c0 0.491 0.398 0.889 0.889 0.889h9.111c0.552 0 1 0.448 1 1s-0.448 1-1 1h-8.444c-1.964 0-3.556-1.592-3.556-3.556v-17.556c0-1.964 1.592-3.556 3.556-3.556h8.439zM23.414 10l5.371 5.371c0.347 0.347 0.347 0.91 0 1.257l-5.371 5.371c-0.391 0.391-1.024 0.391-1.414 0s-0.391-1.024-0-1.414l3.589-3.593-13.922 0.002c-0.552 0-1-0.448-1-1s0.448-1 1-1l13.913-0.002-3.579-3.579c-0.391-0.39-0.391-1.024-0-1.414s1.024-0.391 1.414-0z"></path>
</svg>
