<!-- Generated by IcoMoon.io -->
<svg version="1.1" xmlns="http://www.w3.org/2000/svg" width="32" height="32" viewBox="0 0 32 32">
<title>version</title>
<path d="M26.667 5.333v21.333c0 1.473-1.194 2.667-2.667 2.667h-16c-1.473 0-2.667-1.194-2.667-2.667v-21.333c0-1.473 1.194-2.667 2.667-2.667h16c1.473 0 2.667 1.194 2.667 2.667zM11.333 4.667h-3.333c-0.368 0-0.667 0.298-0.667 0.667v21.333c0 0.368 0.298 0.667 0.667 0.667h3.333v-22.667zM24 4.667h-10.667v22.667h10.667c0.368 0 0.667-0.298 0.667-0.667v-21.333c0-0.368-0.298-0.667-0.667-0.667zM22 15c0 0.552-0.448 1-1 1h-4c-0.552 0-1-0.448-1-1s0.448-1 1-1h4c0.552 0 1 0.448 1 1zM22 10.333c0 0.552-0.448 1-1 1h-4c-0.552 0-1-0.448-1-1s0.448-1 1-1h4c0.552 0 1 0.448 1 1z"></path>
</svg>
