<?xml version="1.0" encoding="UTF-8"?>
<svg width="196px" height="196px" viewBox="0 0 196 196" version="1.1" xmlns="http://www.w3.org/2000/svg" xmlns:xlink="http://www.w3.org/1999/xlink">
    <g id="页面-1" stroke="none" stroke-width="1" fill="none" fill-rule="evenodd">
        <g id="方案-6备份-27" transform="translate(-1196.000000, -65.000000)" fill-rule="nonzero">
            <g id="顶部图标" transform="translate(1196.000000, 65.000000)">
                <rect id="矩形" fill="#FFFFFF" opacity="0" x="0" y="0" width="196" height="196"></rect>
                <polygon id="路径" fill="#BEBFC1" points="19.9570467 65.7256475 97.9999997 20.6675302 176.043116 65.7256473 175.553117 66.5743527 97.9993467 21.7984667 20.4470467 66.5743525"></polygon>
                <path d="M101.740439,87.4380361 L101.332106,88.1452906 L97.7958337,86.1036272 L98.2041663,85.3963728 L101.740439,87.4380361 Z M108.812983,91.5213629 L108.404651,92.2286173 L104.868378,90.186954 L105.276711,89.4796995 L108.812983,91.5213629 Z M115.885528,95.6046896 L115.477195,96.311944 L111.940923,94.2702807 L112.349256,93.5630262 L115.885528,95.6046896 Z M122.958072,99.6880163 L122.54974,100.395271 L119.013468,98.3536074 L119.4218,97.6463529 L122.958072,99.6880163 Z M130.030617,103.771343 L129.622284,104.478597 L126.086012,102.436934 L126.494345,101.72968 L130.030617,103.771343 Z M137.103162,107.85467 L136.694829,108.561924 L133.158557,106.520261 L133.566889,105.813006 L137.103162,107.85467 Z M144.175706,111.937996 L143.767374,112.645251 L140.231101,110.603588 L140.639434,109.896333 L144.175706,111.937996 Z M151.248251,116.021323 L150.839918,116.728578 L147.303646,114.686914 L147.711979,113.97966 L151.248251,116.021323 Z M158.320796,120.10465 L157.912463,120.811904 L154.376191,118.770241 L154.784523,118.062987 L158.320796,120.10465 Z M165.39334,124.187977 L164.985007,124.895231 L161.448735,122.853568 L161.857068,122.146313 L165.39334,124.187977 Z M172.465885,128.271303 L172.057552,128.978558 L168.52128,126.936894 L168.929612,126.22964 L172.465885,128.271303 Z M172.466137,133.061885 L172.057804,132.35463 L175.59395,130.313039 L175.798117,130.666667 L176.002283,130.313039 L176.614785,130.666667 L172.466137,133.061885 Z M165.393592,137.145211 L164.985259,136.437957 L168.521532,134.396293 L168.929864,135.103548 L165.393592,137.145211 Z M158.321047,141.228538 L157.912715,140.521284 L161.448987,138.47962 L161.85732,139.186875 L158.321047,141.228538 Z M151.248503,145.311865 L150.84017,144.60461 L154.376442,142.562947 L154.784775,143.270201 L151.248503,145.311865 Z M144.175958,149.395191 L143.767625,148.687937 L147.303898,146.646274 L147.71223,147.353528 L144.175958,149.395191 Z M137.103414,153.478518 L136.695081,152.771264 L140.231353,150.7296 L140.639686,151.436855 L137.103414,153.478518 Z M130.030869,157.561845 L129.622536,156.85459 L133.158809,154.812927 L133.567141,155.520182 L130.030869,157.561845 Z M122.958324,161.645172 L122.549992,160.937917 L126.086264,158.896254 L126.494597,159.603508 L122.958324,161.645172 Z M115.88578,165.728498 L115.477447,165.021244 L119.013719,162.979581 L119.422052,163.686835 L115.88578,165.728498 Z M108.813235,169.811825 L108.404902,169.104571 L111.941175,167.062907 L112.349507,167.770162 L108.813235,169.811825 Z M101.74069,173.895152 L101.332358,173.187897 L104.86863,171.146234 L105.276963,171.853488 L101.74069,173.895152 Z M94.2598147,173.895439 L94.668148,173.188185 L98.2041667,175.229706 L98,175.583333 L98.2041667,175.936961 L97.9999998,176.054836 L94.2598147,173.895439 Z M87.1872738,169.812106 L87.5956071,169.104852 L91.1318776,171.146519 L90.7235443,171.853773 L87.1872738,169.812106 Z M80.1147329,165.728773 L80.5230662,165.021519 L84.0593367,167.063185 L83.6510034,167.770439 L80.1147329,165.728773 Z M73.042192,161.64544 L73.4505253,160.938186 L76.9867958,162.979852 L76.5784625,163.687106 L73.042192,161.64544 Z M65.9696511,157.562107 L66.3779844,156.854852 L69.9142549,158.896519 L69.5059216,159.603773 L65.9696511,157.562107 Z M58.8971102,153.478773 L59.3054435,152.771519 L62.841714,154.813186 L62.4333807,155.52044 L58.8971102,153.478773 Z M51.8245693,149.39544 L52.2329026,148.688186 L55.7691731,150.729853 L55.3608398,151.437107 L51.8245693,149.39544 Z M44.7520284,145.312107 L45.1603617,144.604853 L48.6966322,146.64652 L48.2882989,147.353774 L44.7520284,145.312107 Z M37.6794875,141.228774 L38.0878208,140.52152 L41.6240913,142.563186 L41.215758,143.270441 L37.6794875,141.228774 Z M30.6069466,137.145441 L31.0152799,136.438187 L34.5515504,138.479853 L34.1432171,139.187107 L30.6069466,137.145441 Z M23.5344057,133.062108 L23.942739,132.354854 L27.4790095,134.39652 L27.0706762,135.103774 L23.5344057,133.062108 Z M23.5338952,128.27152 L23.9422285,128.978775 L20.4062133,131.020294 L20.2020467,130.666667 L19.99788,131.020294 L19.38538,130.666667 L23.5338952,128.27152 Z M30.6064361,124.188187 L31.0147694,124.895441 L27.478499,126.937108 L27.0701657,126.229854 L30.6064361,124.188187 Z M37.678977,120.104854 L38.0873103,120.812108 L34.5510399,122.853775 L34.1427066,122.146521 L37.678977,120.104854 Z M44.7515179,116.021521 L45.1598512,116.728775 L41.6235808,118.770442 L41.2152475,118.063188 L44.7515179,116.021521 Z M51.8240588,111.938188 L52.2323921,112.645442 L48.6961217,114.687108 L48.2877884,113.979854 L51.8240588,111.938188 Z M58.8965997,107.854855 L59.304933,108.562109 L55.7686626,110.603775 L55.3603293,109.896521 L58.8965997,107.854855 Z M65.9691406,103.771521 L66.3774739,104.478776 L62.8412035,106.520442 L62.4328702,105.813188 L65.9691406,103.771521 Z M73.0416815,99.6881883 L73.4500148,100.395442 L69.9137444,102.437109 L69.5054111,101.729855 L73.0416815,99.6881883 Z M80.1142224,95.6048552 L80.5225557,96.3121093 L76.9862853,98.3537759 L76.577952,97.6465218 L80.1142224,95.6048552 Z M87.1867633,91.521522 L87.5950966,92.2287761 L84.0588262,94.2704427 L83.6504929,93.5631886 L87.1867633,91.521522 Z M94.2593042,87.4381889 L94.6676375,88.145443 L91.1313671,90.1871095 L90.7230338,89.4798555 L94.2593042,87.4381889 Z" id="路径" fill="#D2D4DC"></path>
                <path d="M133.335534,106.169106 L129.799261,108.210769 L130.207594,108.918024 L133.743866,106.876361 L133.335534,106.169106 Z M126.262989,110.252433 L122.726717,112.294096 L123.135049,113.001351 L126.671322,110.959687 L126.262989,110.252433 Z M119.190444,114.33576 L115.654172,116.377423 L116.062505,117.084677 L119.598777,115.043014 L119.190444,114.33576 Z M112.1179,118.419086 L108.581628,120.46075 L108.98996,121.168004 L112.526232,119.126341 L112.1179,118.419086 Z M105.045355,122.502413 L101.509083,124.544076 L101.917416,125.251331 L105.453688,123.209667 L105.045355,122.502413 Z M97.9728106,126.58574 L94.4365383,128.627403 L94.844871,129.334658 L98.3811433,127.292994 L97.9728106,126.58574 Z M90.900266,130.669066 L87.3639937,132.71073 L87.7723263,133.417984 L91.3085987,131.376321 L90.900266,130.669066 Z M83.8277214,134.752393 L80.2914491,136.794057 L80.6997817,137.501311 L84.236054,135.459648 L83.8277214,134.752393 Z M76.7551768,138.83572 L73.2189045,140.877383 L73.6272371,141.584638 L77.1635094,139.542974 L76.7551768,138.83572 Z M69.6826321,142.919047 L66.1463598,144.96071 L66.5546925,145.667964 L70.0909648,143.626301 L69.6826321,142.919047 Z M62.6100875,147.002373 L59.0738152,149.044037 L59.4821479,149.751291 L63.0184202,147.709628 L62.6100875,147.002373 Z" id="路径" fill="#D2D4DC"></path>
                <path d="M61.5882633,106.87636 L65.1245338,108.918027 L65.5328671,108.210773 L61.9965967,106.169106 L61.5882633,106.87636 Z M68.6608042,110.959694 L72.1970747,113.00136 L72.605408,112.294106 L69.0691376,110.252439 L68.6608042,110.959694 Z M75.7333451,115.043027 L79.2696156,117.084693 L79.6779489,116.377439 L76.1416785,114.335773 L75.7333451,115.043027 Z M82.805886,119.12636 L86.3421565,121.168026 L86.7504898,120.460772 L83.2142194,118.419106 L82.805886,119.12636 Z M89.8784269,123.209693 L93.4146974,125.25136 L93.8230307,124.544105 L90.2867603,122.502439 L89.8784269,123.209693 Z M96.9509678,127.293026 L100.487238,129.334693 L100.895572,128.627439 L97.3593012,126.585772 L96.9509678,127.293026 Z M104.023509,131.376359 L107.559779,133.418026 L107.968113,132.710772 L104.431842,130.669105 L104.023509,131.376359 Z M111.09605,135.459692 L114.63232,137.501359 L115.040653,136.794105 L111.504383,134.752438 L111.09605,135.459692 Z M118.168591,139.543026 L121.704861,141.584692 L122.113194,140.877438 L118.576924,138.835772 L118.168591,139.543026 Z M125.241131,143.626359 L128.777402,145.668025 L129.185735,144.960771 L125.649465,142.919105 L125.241131,143.626359 Z M132.313672,147.709692 L135.849943,149.751358 L136.258276,149.044104 L132.722006,147.002438 L132.313672,147.709692 Z" id="路径" fill="#D2D4DC"></path>
                <polygon id="路径" fill="#5F90FF" points="98.5541 21.9462833 98.5541 86.2849167 97.5541 86.2849167 97.5541 21.9462833"></polygon>
                <circle id="椭圆形" fill="#FFFFFF" cx="98" cy="21.9462833" r="2.65416667"></circle>
                <path d="M98,18.6796167 C96.1958698,18.6796167 94.7333333,20.1421532 94.7333333,21.9462833 C94.7333333,23.7504135 96.1958698,25.21295 98,25.21295 C99.8041302,25.21295 101.266667,23.7504135 101.266667,21.9462833 C101.266667,20.1421532 99.8041302,18.6796167 98,18.6796167 Z M98,19.9046167 C99.1275814,19.9046167 100.041667,20.818702 100.041667,21.9462833 C100.041667,23.0738647 99.1275814,23.98795 98,23.98795 C96.8724186,23.98795 95.9583333,23.0738647 95.9583333,21.9462833 C95.9583333,20.818702 96.8724186,19.9046167 98,19.9046167 Z" id="椭圆形" fill="#5F90FF"></path>
                <polygon id="路径" fill="#C0C5D4" points="20.7561467 67.4642617 20.7561467 131.80265 19.7561467 131.80265 19.7561467 67.4642617"></polygon>
                <circle id="椭圆形" fill="#FFFFFF" cx="20.2020467" cy="67.4642617" r="2.65416667"></circle>
                <path d="M20.2020467,64.197595 C18.3979165,64.197595 16.93538,65.6601315 16.93538,67.4642617 C16.93538,69.2683918 18.3979165,70.7309283 20.2020467,70.7309283 C22.0061768,70.7309283 23.4687133,69.2683918 23.4687133,67.4642617 C23.4687133,65.6601315 22.0061768,64.197595 20.2020467,64.197595 Z M20.2020467,65.422595 C21.329628,65.422595 22.2437133,66.3366803 22.2437133,67.4642617 C22.2437133,68.591843 21.329628,69.5059283 20.2020467,69.5059283 C19.0744653,69.5059283 18.16038,68.591843 18.16038,67.4642617 C18.16038,66.3366803 19.0744653,65.422595 20.2020467,65.422595 Z" id="椭圆形" fill="#5F90FF"></path>
                <g id="编组-6" transform="translate(16.935380, 127.400000)">
                    <circle id="椭圆形" fill="#FFFFFF" cx="3.26666667" cy="3.26666667" r="2.65416667"></circle>
                    <path d="M3.26666667,0 C1.46253648,0 0,1.46253648 0,3.26666667 C0,5.07079685 1.46253648,6.53333333 3.26666667,6.53333333 C5.07079685,6.53333333 6.53333333,5.07079685 6.53333333,3.26666667 C6.53333333,1.46253648 5.07079685,0 3.26666667,0 Z M3.26666667,1.225 C4.39424803,1.225 5.30833333,2.1390853 5.30833333,3.26666667 C5.30833333,4.39424803 4.39424803,5.30833333 3.26666667,5.30833333 C2.1390853,5.30833333 1.225,4.39424803 1.225,3.26666667 C1.225,2.1390853 2.1390853,1.225 3.26666667,1.225 Z" id="椭圆形" fill="#C0C5D4"></path>
                </g>
                <g id="编组-4" transform="translate(98.000000, 97.183333)">
                    <polygon id="路径" fill="#212121" points="74.8347984 34.4748552 85.75 28.1315897 85.75 27.1251101 38.7480458 0.816666667 27.8321085 6.34391173 27.8321085 7.15993211 44.6945681 16.9595922 0 41.927544 0 42.933283 13.250547 50.6333333 57.9451151 24.6596425"></polygon>
                    <polygon id="路径" fill="#444444" points="74.8347984 33.6584287 85.75 27.3152576 38.7480458 0 27.8321085 6.34391173 44.6945681 16.1426855 0 42.1159902 13.250547 49.8166667 57.9451151 23.8433619"></polygon>
                </g>
                <g id="编组" transform="translate(12.197682, 59.782862)">
                    <path d="M61.5346595,2.70838939 C70.0904678,4.12938939 78.3306345,7.12712773 86.2531178,11.7015227 C94.1764178,16.2759994 99.3687845,21.0330827 101.830218,25.9728544 C103.286476,28.8955164 103.901463,31.7684397 103.675519,34.5914552 L124.86,35.8685917 L127.390251,34.4057544 L127.39,36.0215917 L127.39,36.0225917 L127.363,36.0385917 L111.640018,45.1163377 L99.3094238,44.481755 C96.8218388,47.5143254 93.3372198,50.3242118 88.8550178,52.9122377 C82.3853845,56.6468544 75.1186845,59.1777044 67.0550812,60.5039711 C58.9913145,61.8310544 50.6930828,61.7902211 42.1605495,60.3822877 C33.6279345,58.9482211 25.4117778,55.9502377 17.5121612,51.3891544 C9.58902449,46.8150044 4.38506116,42.0644544 1.90027116,37.1383211 C-0.560998844,32.1983044 -0.631395511,27.4077377 1.68932616,22.7658044 C4.00996616,18.1232994 8.40518449,13.9346161 14.8749812,10.1992644 C21.3213395,6.47746939 28.5646828,3.94670106 36.6050112,2.60687773 C44.6687778,1.25349773 52.9786062,1.28730773 61.5346595,2.70838939 Z M41.5276328,15.3150277 C37.4019962,15.7752194 33.6044962,17.0067527 30.1352145,19.0097911 C26.6893712,20.9992727 24.5562378,23.1921044 23.7357328,25.5873877 C22.9153095,27.9826711 23.4544728,30.4996377 25.3532228,33.1391044 C27.2754112,35.7646877 30.5806245,38.4311044 35.2687812,41.1375377 C39.9570195,43.8439711 44.5749428,45.7525211 49.1225512,46.8623711 C53.6935978,47.9583377 58.0536178,48.2694877 62.2027745,47.7958211 C66.3518495,47.3221544 70.1492678,46.0906211 73.5947845,44.1012211 C74.4929559,43.582907 75.3015601,43.0518446 76.0206113,42.508048 L55.9439228,40.8941711 L55.9365728,39.2698211 L58.404,39.4725917 L70.0088012,32.7732377 L80.1080905,33.4820818 C79.7996011,32.3424078 79.2109772,31.1792097 78.3420678,29.9924877 C76.4433178,27.3530211 73.1497012,24.6800711 68.4615445,21.9737194 C63.7733062,19.2669594 59.1437045,17.3654327 54.5726578,16.2692211 C50.0250495,15.1594527 45.6767078,14.8413611 41.5276328,15.3150277 Z" id="形状结合" fill="#DCDCDC"></path>
                    <path d="M55.9439228,39.2771711 L70.0088012,31.1570544 L83.6161012,32.1109211 L100.459034,32.7814044 L127.392701,34.4049377 L111.640018,43.5001544 L93.1098512,42.5454711 L80.9439678,41.2869877 L55.9439228,39.2771711 Z M86.2531178,10.0849311 C94.1764178,14.6594077 99.3687845,19.4164911 101.830218,24.3566711 C104.291651,29.2958711 104.349634,34.0937877 102.005801,38.7496044 C99.6848345,43.3915377 95.3017845,47.5736877 88.8550178,51.2952377 C82.3853845,55.0306711 75.1186845,57.5615211 67.0550812,58.8877877 C58.9913145,60.2140544 50.6930828,60.1732211 42.1605495,58.7661044 C33.6279345,57.3312211 25.4117778,54.3332377 17.5121612,49.7729711 C9.58902449,45.1980044 4.38506116,40.4482711 1.90027116,35.5213211 C-0.560998844,30.5821211 -0.631395511,25.7907377 1.68932616,21.1488044 C4.00996616,16.5067077 8.40518449,12.3180244 14.8749812,8.58267273 C21.3213395,4.86095939 28.5646828,2.33010939 36.6050112,0.990286059 C44.6687778,-0.363093941 52.9786062,-0.329283941 61.5346595,1.09179773 C70.0904678,2.51279773 78.3306345,5.51053606 86.2531178,10.0849311 Z M68.4615445,20.3571277 C63.7733062,17.6503677 59.1437045,15.7488411 54.5726578,14.6526294 C50.0250495,13.5428611 45.6767078,13.2247694 41.5276328,13.6985177 C37.4019962,14.1586277 33.6044962,15.3901611 30.1352145,17.3931994 C26.6893712,19.3826811 24.5562378,21.5751044 23.7357328,23.9703877 C22.9153095,26.3664877 23.4544728,28.8834544 25.3532228,31.5221044 C27.2754112,34.1476877 30.5806245,36.8141044 35.2687812,39.5205377 C39.9570195,42.2277877 44.5749428,44.1363377 49.1225512,45.2453711 C53.6935978,46.3421544 58.0536178,46.6533044 62.2027745,46.1796377 C66.3518495,45.7059711 70.1492678,44.4744377 73.5947845,42.4850377 C77.0648012,40.4817544 79.1979345,38.2890044 79.9950012,35.9076044 C80.8149345,33.5123211 80.2645012,31.0010711 78.3420678,28.3754877 C76.4433178,25.7368377 73.1497012,23.0638877 68.4615445,20.3571277 Z" id="形状" fill="#F3F5F6"></path>
                </g>
                <polygon id="路径" fill="#BEBFC1" points="175.553116 65.6926548 176.043118 66.5413586 98.2450009 111.458352 97.7549991 110.609648"></polygon>
                <g id="编组-5" transform="translate(75.894058, 56.487282)">
                    <polygon id="路径" fill="#212121" points="16.1263083 11.31459 19.5799917 13.3087267 19.5799917 13.80722 16.1263083 11.8130833"></polygon>
                    <polygon id="路径" fill="#212121" points="19.5799917 13.3087267 23.033675 11.31459 23.033675 11.8130833 19.5799917 13.80722"></polygon>
                    <polygon id="路径" fill="#414141" points="21.365225 12.2765417 34.3175583 19.75435 33.8855417 20.0035967 20.9332083 12.5257883"></polygon>
                    <polygon id="路径" fill="#212121" points="20.9332083 12.52587 33.8855417 20.0036783 33.8855417 20.5022533 20.9332083 13.0243633"></polygon>
                    <polygon id="路径" fill="#414141" points="35.6822083 18.795665 39.1358917 20.7898017 35.6822083 22.7838567 32.228525 20.7898017"></polygon>
                    <polygon id="路径" fill="#212121" points="32.228525 20.7898017 35.6822083 22.7838567 35.6822083 23.2824317 32.228525 21.288295"></polygon>
                    <polygon id="路径" fill="#212121" points="35.6822083 22.7838567 39.1358917 20.7898017 39.1358917 21.288295 35.6822083 23.2824317"></polygon>
                    <polygon id="路径" fill="#414141" points="3.45384667 0 6.907775 1.994055 3.45384667 3.98819167 0 1.994055"></polygon>
                    <polygon id="路径" fill="#212121" points="0 1.99413667 3.45384667 3.98819167 3.45384667 4.486685 0 2.49263"></polygon>
                    <polygon id="路径" fill="#212121" points="3.45384667 3.98819167 6.907775 1.99413667 6.907775 2.49263 3.45384667 4.486685"></polygon>
                    <polygon id="路径" fill="#414141" points="5.2479 2.93069 18.199825 10.40858 17.7678083 10.6578267 4.81612833 3.17993667"></polygon>
                    <polygon id="路径" fill="#212121" points="4.81612833 3.17993667 17.7678083 10.657745 17.7678083 11.15632 4.81612833 3.67843"></polygon>
                    <polygon id="路径" fill="#414141" points="19.5799917 9.32045333 23.033675 11.31459 19.5799917 13.308645 16.1263083 11.31459"></polygon>
                </g>
                <polygon id="路径" fill="#5F90FF" points="98.461 111.510933 98.461 175.84875 97.461 175.84875 97.461 111.510933"></polygon>
                <circle id="椭圆形" fill="#FFFFFF" cx="97.9069" cy="111.510933" r="2.65416667"></circle>
                <path d="M97.9069,108.244267 C96.1027698,108.244267 94.6402333,109.706803 94.6402333,111.510933 C94.6402333,113.315064 96.1027698,114.7776 97.9069,114.7776 C99.7110302,114.7776 101.173567,113.315064 101.173567,111.510933 C101.173567,109.706803 99.7110302,108.244267 97.9069,108.244267 Z M97.9069,109.469267 C99.0344814,109.469267 99.9485667,110.383352 99.9485667,111.510933 C99.9485667,112.638515 99.0344814,113.5526 97.9069,113.5526 C96.7793186,113.5526 95.8652333,112.638515 95.8652333,111.510933 C95.8652333,110.383352 96.7793186,109.469267 97.9069,109.469267 Z" id="椭圆形" fill="#5F90FF"></path>
                <g id="编组-3" transform="translate(94.640233, 171.446917)">
                    <circle id="椭圆形" fill="#FFFFFF" cx="3.26666667" cy="3.26666667" r="2.65416667"></circle>
                    <path d="M3.26666667,0 C1.46253648,0 0,1.46253648 0,3.26666667 C0,5.07079685 1.46253648,6.53333333 3.26666667,6.53333333 C5.07079685,6.53333333 6.53333333,5.07079685 6.53333333,3.26666667 C6.53333333,1.46253648 5.07079685,0 3.26666667,0 Z M3.26666667,1.225 C4.39424803,1.225 5.30833333,2.1390853 5.30833333,3.26666667 C5.30833333,4.39424803 4.39424803,5.30833333 3.26666667,5.30833333 C2.1390853,5.30833333 1.225,4.39424803 1.225,3.26666667 C1.225,2.1390853 2.1390853,1.225 3.26666667,1.225 Z" id="椭圆形" fill="#5F90FF"></path>
                </g>
                <polygon id="路径" fill="#BEBFC1" points="176.352217 67.4642617 176.352217 131.80265 175.352217 131.80265 175.352217 67.4642617"></polygon>
                <g id="编组-2" transform="translate(172.531450, 63.380928)">
                    <circle id="椭圆形" fill="#FFFFFF" cx="3.26666667" cy="3.26666667" r="2.65416667"></circle>
                    <path d="M3.26666667,0 C1.46253648,0 0,1.46253648 0,3.26666667 C0,5.07079685 1.46253648,6.53333333 3.26666667,6.53333333 C5.07079685,6.53333333 6.53333333,5.07079685 6.53333333,3.26666667 C6.53333333,1.46253648 5.07079685,0 3.26666667,0 Z M3.26666667,1.225 C4.39424803,1.225 5.30833333,2.1390853 5.30833333,3.26666667 C5.30833333,4.39424803 4.39424803,5.30833333 3.26666667,5.30833333 C2.1390853,5.30833333 1.225,4.39424803 1.225,3.26666667 C1.225,2.1390853 2.1390853,1.225 3.26666667,1.225 Z" id="椭圆形" fill="#5F90FF"></path>
                </g>
                <g id="编组-7" transform="translate(172.531450, 127.400000)">
                    <circle id="椭圆形" fill="#FFFFFF" cx="3.26666667" cy="3.26666667" r="2.65416667"></circle>
                    <path d="M3.26666667,0 C1.46253648,0 0,1.46253648 0,3.26666667 C0,5.07079685 1.46253648,6.53333333 3.26666667,6.53333333 C5.07079685,6.53333333 6.53333333,5.07079685 6.53333333,3.26666667 C6.53333333,1.46253648 5.07079685,0 3.26666667,0 Z M3.26666667,1.225 C4.39424803,1.225 5.30833333,2.1390853 5.30833333,3.26666667 C5.30833333,4.39424803 4.39424803,5.30833333 3.26666667,5.30833333 C2.1390853,5.30833333 1.225,4.39424803 1.225,3.26666667 C1.225,2.1390853 2.1390853,1.225 3.26666667,1.225 Z" id="椭圆形" fill="#BEBFC1"></path>
                </g>
            </g>
        </g>
    </g>
</svg>