<?xml version="1.0" encoding="UTF-8"?>
<svg width="734px" height="352px" viewBox="0 0 734 352" version="1.1" xmlns="http://www.w3.org/2000/svg" xmlns:xlink="http://www.w3.org/1999/xlink">
    <defs>
        <linearGradient x1="23.9935517%" y1="50%" x2="116.271893%" y2="50%" id="linearGradient-1">
            <stop stop-color="#FFFFFF" offset="0%"></stop>
            <stop stop-color="#FAFAFA" stop-opacity="0" offset="100%"></stop>
        </linearGradient>
        <linearGradient x1="21.8416899%" y1="50%" x2="107.244405%" y2="50%" id="linearGradient-2">
            <stop stop-color="#FFFFFF" offset="0%"></stop>
            <stop stop-color="#FFFFFF" stop-opacity="0" offset="100%"></stop>
        </linearGradient>
    </defs>
    <g id="页面-1" stroke="none" stroke-width="1" fill="none" fill-rule="evenodd" opacity="0.447846912">
        <g id="方案-6备份-27" transform="translate(-706.000000, -64.000000)">
            <g id="格子背景" transform="translate(706.000000, 64.000000)">
                <rect id="矩形" fill="#FAFAFA" fill-rule="nonzero" opacity="0" x="4.54747351e-13" y="0" width="734" height="352"></rect>
                <rect id="矩形" stroke="#EDEDED" stroke-width="1.38490566" x="0.69245283" y="0.692913386" width="31.8528302" height="31.8740157"></rect>
                <rect id="矩形" stroke="#EDEDED" stroke-width="1.38490566" x="32.545283" y="0.692913386" width="31.8528302" height="31.8740157"></rect>
                <rect id="矩形" stroke="#EDEDED" stroke-width="1.38490566" x="64.3981132" y="0.692913386" width="31.8528302" height="31.8740157"></rect>
                <rect id="矩形" stroke="#EDEDED" stroke-width="1.38490566" x="96.2509434" y="0.692913386" width="31.8528302" height="31.8740157"></rect>
                <rect id="矩形" stroke="#EDEDED" stroke-width="1.38490566" x="128.103774" y="0.692913386" width="31.8528302" height="31.8740157"></rect>
                <rect id="矩形" stroke="#EDEDED" stroke-width="1.38490566" x="159.956604" y="0.692913386" width="31.8528302" height="31.8740157"></rect>
                <rect id="矩形" stroke="#EDEDED" stroke-width="1.38490566" x="191.809434" y="0.692913386" width="31.8528302" height="31.8740157"></rect>
                <rect id="矩形" stroke="#EDEDED" stroke-width="1.38490566" x="223.662264" y="0.692913386" width="31.8528302" height="31.8740157"></rect>
                <rect id="矩形" stroke="#EDEDED" stroke-width="1.38490566" x="255.515094" y="0.692913386" width="31.8528302" height="31.8740157"></rect>
                <rect id="矩形" stroke="#EDEDED" stroke-width="1.38490566" x="287.367925" y="0.692913386" width="31.8528302" height="31.8740157"></rect>
                <rect id="矩形" stroke="#EDEDED" stroke-width="1.38490566" x="319.220755" y="0.692913386" width="31.8528302" height="31.8740157"></rect>
                <rect id="矩形" stroke="#EDEDED" stroke-width="1.38490566" x="351.073585" y="0.692913386" width="31.8528302" height="31.8740157"></rect>
                <rect id="矩形" stroke="#EDEDED" stroke-width="1.38490566" x="382.926415" y="0.692913386" width="31.8528302" height="31.8740157"></rect>
                <rect id="矩形" stroke="#EDEDED" stroke-width="1.38490566" x="414.779245" y="0.692913386" width="31.8528302" height="31.8740157"></rect>
                <rect id="矩形" stroke="#EDEDED" stroke-width="1.38490566" x="446.632075" y="0.692913386" width="31.8528302" height="31.8740157"></rect>
                <rect id="矩形" stroke="#EDEDED" stroke-width="1.38490566" x="478.484906" y="0.692913386" width="31.8528302" height="31.8740157"></rect>
                <rect id="矩形" stroke="#EDEDED" stroke-width="1.38490566" x="510.337736" y="0.692913386" width="31.8528302" height="31.8740157"></rect>
                <rect id="矩形" stroke="#EDEDED" stroke-width="1.38490566" x="542.190566" y="0.692913386" width="31.8528302" height="31.8740157"></rect>
                <rect id="矩形" stroke="#EDEDED" stroke-width="1.38490566" x="574.043396" y="0.692913386" width="31.8528302" height="31.8740157"></rect>
                <rect id="矩形" stroke="#EDEDED" stroke-width="1.38490566" x="605.896226" y="0.692913386" width="31.8528302" height="31.8740157"></rect>
                <rect id="矩形" stroke="#EDEDED" stroke-width="1.38490566" x="637.749057" y="0.692913386" width="31.8528302" height="31.8740157"></rect>
                <rect id="矩形" stroke="#EDEDED" stroke-width="1.38490566" x="669.601887" y="0.692913386" width="31.8528302" height="31.8740157"></rect>
                <rect id="矩形" stroke="#EDEDED" stroke-width="1.38490566" x="701.454717" y="0.692913386" width="31.8528302" height="31.8740157"></rect>
                <rect id="矩形" stroke="#EDEDED" stroke-width="1.38490566" x="0.69245283" y="32.5669291" width="31.8528302" height="31.8740157"></rect>
                <rect id="矩形" stroke="#EDEDED" stroke-width="1.38490566" x="32.545283" y="32.5669291" width="31.8528302" height="31.8740157"></rect>
                <rect id="矩形" stroke="#EDEDED" stroke-width="1.38490566" x="64.3981132" y="32.5669291" width="31.8528302" height="31.8740157"></rect>
                <rect id="矩形" stroke="#EDEDED" stroke-width="1.38490566" x="96.2509434" y="32.5669291" width="31.8528302" height="31.8740157"></rect>
                <rect id="矩形" stroke="#EDEDED" stroke-width="1.38490566" x="128.103774" y="32.5669291" width="31.8528302" height="31.8740157"></rect>
                <rect id="矩形" stroke="#EDEDED" stroke-width="1.38490566" x="159.956604" y="32.5669291" width="31.8528302" height="31.8740157"></rect>
                <rect id="矩形" stroke="#EDEDED" stroke-width="1.38490566" x="191.809434" y="32.5669291" width="31.8528302" height="31.8740157"></rect>
                <rect id="矩形" stroke="#EDEDED" stroke-width="1.38490566" x="223.662264" y="32.5669291" width="31.8528302" height="31.8740157"></rect>
                <rect id="矩形" stroke="#EDEDED" stroke-width="1.38490566" x="255.515094" y="32.5669291" width="31.8528302" height="31.8740157"></rect>
                <rect id="矩形" stroke="#EDEDED" stroke-width="1.38490566" x="287.367925" y="32.5669291" width="31.8528302" height="31.8740157"></rect>
                <rect id="矩形" stroke="#EDEDED" stroke-width="1.38490566" x="319.220755" y="32.5669291" width="31.8528302" height="31.8740157"></rect>
                <rect id="矩形" stroke="#EDEDED" stroke-width="1.38490566" x="351.073585" y="32.5669291" width="31.8528302" height="31.8740157"></rect>
                <rect id="矩形" stroke="#EDEDED" stroke-width="1.38490566" x="382.926415" y="32.5669291" width="31.8528302" height="31.8740157"></rect>
                <rect id="矩形" stroke="#EDEDED" stroke-width="1.38490566" x="414.779245" y="32.5669291" width="31.8528302" height="31.8740157"></rect>
                <rect id="矩形" stroke="#EDEDED" stroke-width="1.38490566" x="446.632075" y="32.5669291" width="31.8528302" height="31.8740157"></rect>
                <rect id="矩形" stroke="#EDEDED" stroke-width="1.38490566" x="478.484906" y="32.5669291" width="31.8528302" height="31.8740157"></rect>
                <rect id="矩形" stroke="#EDEDED" stroke-width="1.38490566" x="510.337736" y="32.5669291" width="31.8528302" height="31.8740157"></rect>
                <rect id="矩形" stroke="#EDEDED" stroke-width="1.38490566" x="542.190566" y="32.5669291" width="31.8528302" height="31.8740157"></rect>
                <rect id="矩形" stroke="#EDEDED" stroke-width="1.38490566" x="574.043396" y="32.5669291" width="31.8528302" height="31.8740157"></rect>
                <rect id="矩形" stroke="#EDEDED" stroke-width="1.38490566" x="605.896226" y="32.5669291" width="31.8528302" height="31.8740157"></rect>
                <rect id="矩形" stroke="#EDEDED" stroke-width="1.38490566" x="637.749057" y="32.5669291" width="31.8528302" height="31.8740157"></rect>
                <rect id="矩形" stroke="#EDEDED" stroke-width="1.38490566" x="669.601887" y="32.5669291" width="31.8528302" height="31.8740157"></rect>
                <rect id="矩形" stroke="#EDEDED" stroke-width="1.38490566" x="701.454717" y="32.5669291" width="31.8528302" height="31.8740157"></rect>
                <rect id="矩形" stroke="#EDEDED" stroke-width="1.38490566" x="0.69245283" y="64.4409449" width="31.8528302" height="31.8740157"></rect>
                <rect id="矩形" stroke="#EDEDED" stroke-width="1.38490566" x="32.545283" y="64.4409449" width="31.8528302" height="31.8740157"></rect>
                <rect id="矩形" stroke="#EDEDED" stroke-width="1.38490566" x="64.3981132" y="64.4409449" width="31.8528302" height="31.8740157"></rect>
                <rect id="矩形" stroke="#EDEDED" stroke-width="1.38490566" x="96.2509434" y="64.4409449" width="31.8528302" height="31.8740157"></rect>
                <rect id="矩形" stroke="#EDEDED" stroke-width="1.38490566" x="128.103774" y="64.4409449" width="31.8528302" height="31.8740157"></rect>
                <rect id="矩形" stroke="#EDEDED" stroke-width="1.38490566" x="159.956604" y="64.4409449" width="31.8528302" height="31.8740157"></rect>
                <rect id="矩形" stroke="#EDEDED" stroke-width="1.38490566" x="191.809434" y="64.4409449" width="31.8528302" height="31.8740157"></rect>
                <rect id="矩形" stroke="#EDEDED" stroke-width="1.38490566" x="223.662264" y="64.4409449" width="31.8528302" height="31.8740157"></rect>
                <rect id="矩形" stroke="#EDEDED" stroke-width="1.38490566" x="255.515094" y="64.4409449" width="31.8528302" height="31.8740157"></rect>
                <rect id="矩形" stroke="#EDEDED" stroke-width="1.38490566" x="287.367925" y="64.4409449" width="31.8528302" height="31.8740157"></rect>
                <rect id="矩形" stroke="#EDEDED" stroke-width="1.38490566" x="319.220755" y="64.4409449" width="31.8528302" height="31.8740157"></rect>
                <rect id="矩形" stroke="#EDEDED" stroke-width="1.38490566" x="351.073585" y="64.4409449" width="31.8528302" height="31.8740157"></rect>
                <rect id="矩形" stroke="#EDEDED" stroke-width="1.38490566" x="382.926415" y="64.4409449" width="31.8528302" height="31.8740157"></rect>
                <rect id="矩形" stroke="#EDEDED" stroke-width="1.38490566" x="414.779245" y="64.4409449" width="31.8528302" height="31.8740157"></rect>
                <rect id="矩形" stroke="#EDEDED" stroke-width="1.38490566" x="446.632075" y="64.4409449" width="31.8528302" height="31.8740157"></rect>
                <rect id="矩形" stroke="#EDEDED" stroke-width="1.38490566" x="478.484906" y="64.4409449" width="31.8528302" height="31.8740157"></rect>
                <rect id="矩形" stroke="#EDEDED" stroke-width="1.38490566" x="510.337736" y="64.4409449" width="31.8528302" height="31.8740157"></rect>
                <rect id="矩形" stroke="#EDEDED" stroke-width="1.38490566" x="542.190566" y="64.4409449" width="31.8528302" height="31.8740157"></rect>
                <rect id="矩形" stroke="#EDEDED" stroke-width="1.38490566" x="574.043396" y="64.4409449" width="31.8528302" height="31.8740157"></rect>
                <rect id="矩形" stroke="#EDEDED" stroke-width="1.38490566" x="605.896226" y="64.4409449" width="31.8528302" height="31.8740157"></rect>
                <rect id="矩形" stroke="#EDEDED" stroke-width="1.38490566" x="637.749057" y="64.4409449" width="31.8528302" height="31.8740157"></rect>
                <rect id="矩形" stroke="#EDEDED" stroke-width="1.38490566" x="669.601887" y="64.4409449" width="31.8528302" height="31.8740157"></rect>
                <rect id="矩形" stroke="#EDEDED" stroke-width="1.38490566" x="701.454717" y="64.4409449" width="31.8528302" height="31.8740157"></rect>
                <rect id="矩形" stroke="#EDEDED" stroke-width="1.38490566" x="0.69245283" y="96.3149606" width="31.8528302" height="31.8740157"></rect>
                <rect id="矩形" stroke="#EDEDED" stroke-width="1.38490566" x="32.545283" y="96.3149606" width="31.8528302" height="31.8740157"></rect>
                <rect id="矩形" stroke="#EDEDED" stroke-width="1.38490566" x="64.3981132" y="96.3149606" width="31.8528302" height="31.8740157"></rect>
                <rect id="矩形" stroke="#EDEDED" stroke-width="1.38490566" x="96.2509434" y="96.3149606" width="31.8528302" height="31.8740157"></rect>
                <rect id="矩形" stroke="#EDEDED" stroke-width="1.38490566" x="128.103774" y="96.3149606" width="31.8528302" height="31.8740157"></rect>
                <rect id="矩形" stroke="#EDEDED" stroke-width="1.38490566" x="159.956604" y="96.3149606" width="31.8528302" height="31.8740157"></rect>
                <rect id="矩形" stroke="#EDEDED" stroke-width="1.38490566" x="191.809434" y="96.3149606" width="31.8528302" height="31.8740157"></rect>
                <rect id="矩形" stroke="#EDEDED" stroke-width="1.38490566" x="223.662264" y="96.3149606" width="31.8528302" height="31.8740157"></rect>
                <rect id="矩形" stroke="#EDEDED" stroke-width="1.38490566" x="255.515094" y="96.3149606" width="31.8528302" height="31.8740157"></rect>
                <rect id="矩形" stroke="#EDEDED" stroke-width="1.38490566" x="287.367925" y="96.3149606" width="31.8528302" height="31.8740157"></rect>
                <rect id="矩形" stroke="#EDEDED" stroke-width="1.38490566" x="319.220755" y="96.3149606" width="31.8528302" height="31.8740157"></rect>
                <rect id="矩形" stroke="#EDEDED" stroke-width="1.38490566" x="351.073585" y="96.3149606" width="31.8528302" height="31.8740157"></rect>
                <rect id="矩形" stroke="#EDEDED" stroke-width="1.38490566" x="382.926415" y="96.3149606" width="31.8528302" height="31.8740157"></rect>
                <rect id="矩形" stroke="#EDEDED" stroke-width="1.38490566" x="414.779245" y="96.3149606" width="31.8528302" height="31.8740157"></rect>
                <rect id="矩形" stroke="#EDEDED" stroke-width="1.38490566" x="446.632075" y="96.3149606" width="31.8528302" height="31.8740157"></rect>
                <rect id="矩形" stroke="#EDEDED" stroke-width="1.38490566" x="478.484906" y="96.3149606" width="31.8528302" height="31.8740157"></rect>
                <rect id="矩形" stroke="#EDEDED" stroke-width="1.38490566" x="510.337736" y="96.3149606" width="31.8528302" height="31.8740157"></rect>
                <rect id="矩形" stroke="#EDEDED" stroke-width="1.38490566" x="542.190566" y="96.3149606" width="31.8528302" height="31.8740157"></rect>
                <rect id="矩形" stroke="#EDEDED" stroke-width="1.38490566" x="574.043396" y="96.3149606" width="31.8528302" height="31.8740157"></rect>
                <rect id="矩形" stroke="#EDEDED" stroke-width="1.38490566" x="605.896226" y="96.3149606" width="31.8528302" height="31.8740157"></rect>
                <rect id="矩形" stroke="#EDEDED" stroke-width="1.38490566" x="637.749057" y="96.3149606" width="31.8528302" height="31.8740157"></rect>
                <rect id="矩形" stroke="#EDEDED" stroke-width="1.38490566" x="669.601887" y="96.3149606" width="31.8528302" height="31.8740157"></rect>
                <rect id="矩形" stroke="#EDEDED" stroke-width="1.38490566" x="701.454717" y="96.3149606" width="31.8528302" height="31.8740157"></rect>
                <rect id="矩形" stroke="#EDEDED" stroke-width="1.38490566" x="0.69245283" y="128.188976" width="31.8528302" height="31.8740157"></rect>
                <rect id="矩形" stroke="#EDEDED" stroke-width="1.38490566" x="32.545283" y="128.188976" width="31.8528302" height="31.8740157"></rect>
                <rect id="矩形" stroke="#EDEDED" stroke-width="1.38490566" x="64.3981132" y="128.188976" width="31.8528302" height="31.8740157"></rect>
                <rect id="矩形" stroke="#EDEDED" stroke-width="1.38490566" x="96.2509434" y="128.188976" width="31.8528302" height="31.8740157"></rect>
                <rect id="矩形" stroke="#EDEDED" stroke-width="1.38490566" x="128.103774" y="128.188976" width="31.8528302" height="31.8740157"></rect>
                <rect id="矩形" stroke="#EDEDED" stroke-width="1.38490566" x="159.956604" y="128.188976" width="31.8528302" height="31.8740157"></rect>
                <rect id="矩形" stroke="#EDEDED" stroke-width="1.38490566" x="191.809434" y="128.188976" width="31.8528302" height="31.8740157"></rect>
                <rect id="矩形" stroke="#EDEDED" stroke-width="1.38490566" x="223.662264" y="128.188976" width="31.8528302" height="31.8740157"></rect>
                <rect id="矩形" stroke="#EDEDED" stroke-width="1.38490566" x="255.515094" y="128.188976" width="31.8528302" height="31.8740157"></rect>
                <rect id="矩形" stroke="#EDEDED" stroke-width="1.38490566" x="287.367925" y="128.188976" width="31.8528302" height="31.8740157"></rect>
                <rect id="矩形" stroke="#EDEDED" stroke-width="1.38490566" x="319.220755" y="128.188976" width="31.8528302" height="31.8740157"></rect>
                <rect id="矩形" stroke="#EDEDED" stroke-width="1.38490566" x="351.073585" y="128.188976" width="31.8528302" height="31.8740157"></rect>
                <rect id="矩形" stroke="#EDEDED" stroke-width="1.38490566" x="382.926415" y="128.188976" width="31.8528302" height="31.8740157"></rect>
                <rect id="矩形" stroke="#EDEDED" stroke-width="1.38490566" x="414.779245" y="128.188976" width="31.8528302" height="31.8740157"></rect>
                <rect id="矩形" stroke="#EDEDED" stroke-width="1.38490566" x="446.632075" y="128.188976" width="31.8528302" height="31.8740157"></rect>
                <rect id="矩形" stroke="#EDEDED" stroke-width="1.38490566" x="478.484906" y="128.188976" width="31.8528302" height="31.8740157"></rect>
                <rect id="矩形" stroke="#EDEDED" stroke-width="1.38490566" x="510.337736" y="128.188976" width="31.8528302" height="31.8740157"></rect>
                <rect id="矩形" stroke="#EDEDED" stroke-width="1.38490566" x="542.190566" y="128.188976" width="31.8528302" height="31.8740157"></rect>
                <rect id="矩形" stroke="#EDEDED" stroke-width="1.38490566" x="574.043396" y="128.188976" width="31.8528302" height="31.8740157"></rect>
                <rect id="矩形" stroke="#EDEDED" stroke-width="1.38490566" x="605.896226" y="128.188976" width="31.8528302" height="31.8740157"></rect>
                <rect id="矩形" stroke="#EDEDED" stroke-width="1.38490566" x="637.749057" y="128.188976" width="31.8528302" height="31.8740157"></rect>
                <rect id="矩形" stroke="#EDEDED" stroke-width="1.38490566" x="669.601887" y="128.188976" width="31.8528302" height="31.8740157"></rect>
                <rect id="矩形" stroke="#EDEDED" stroke-width="1.38490566" x="701.454717" y="128.188976" width="31.8528302" height="31.8740157"></rect>
                <rect id="矩形" stroke="#EDEDED" stroke-width="1.38490566" x="0.69245283" y="160.062992" width="31.8528302" height="31.8740157"></rect>
                <rect id="矩形" stroke="#EDEDED" stroke-width="1.38490566" x="32.545283" y="160.062992" width="31.8528302" height="31.8740157"></rect>
                <rect id="矩形" stroke="#EDEDED" stroke-width="1.38490566" x="64.3981132" y="160.062992" width="31.8528302" height="31.8740157"></rect>
                <rect id="矩形" stroke="#EDEDED" stroke-width="1.38490566" x="96.2509434" y="160.062992" width="31.8528302" height="31.8740157"></rect>
                <rect id="矩形" stroke="#EDEDED" stroke-width="1.38490566" x="128.103774" y="160.062992" width="31.8528302" height="31.8740157"></rect>
                <rect id="矩形" stroke="#EDEDED" stroke-width="1.38490566" x="159.956604" y="160.062992" width="31.8528302" height="31.8740157"></rect>
                <rect id="矩形" stroke="#EDEDED" stroke-width="1.38490566" x="191.809434" y="160.062992" width="31.8528302" height="31.8740157"></rect>
                <rect id="矩形" stroke="#EDEDED" stroke-width="1.38490566" x="223.662264" y="160.062992" width="31.8528302" height="31.8740157"></rect>
                <rect id="矩形" stroke="#EDEDED" stroke-width="1.38490566" x="255.515094" y="160.062992" width="31.8528302" height="31.8740157"></rect>
                <rect id="矩形" stroke="#EDEDED" stroke-width="1.38490566" x="287.367925" y="160.062992" width="31.8528302" height="31.8740157"></rect>
                <rect id="矩形" stroke="#EDEDED" stroke-width="1.38490566" x="319.220755" y="160.062992" width="31.8528302" height="31.8740157"></rect>
                <rect id="矩形" stroke="#EDEDED" stroke-width="1.38490566" x="351.073585" y="160.062992" width="31.8528302" height="31.8740157"></rect>
                <rect id="矩形" stroke="#EDEDED" stroke-width="1.38490566" x="382.926415" y="160.062992" width="31.8528302" height="31.8740157"></rect>
                <rect id="矩形" stroke="#EDEDED" stroke-width="1.38490566" x="414.779245" y="160.062992" width="31.8528302" height="31.8740157"></rect>
                <rect id="矩形" stroke="#EDEDED" stroke-width="1.38490566" x="446.632075" y="160.062992" width="31.8528302" height="31.8740157"></rect>
                <rect id="矩形" stroke="#EDEDED" stroke-width="1.38490566" x="478.484906" y="160.062992" width="31.8528302" height="31.8740157"></rect>
                <rect id="矩形" stroke="#EDEDED" stroke-width="1.38490566" x="510.337736" y="160.062992" width="31.8528302" height="31.8740157"></rect>
                <rect id="矩形" stroke="#EDEDED" stroke-width="1.38490566" x="542.190566" y="160.062992" width="31.8528302" height="31.8740157"></rect>
                <rect id="矩形" stroke="#EDEDED" stroke-width="1.38490566" x="574.043396" y="160.062992" width="31.8528302" height="31.8740157"></rect>
                <rect id="矩形" stroke="#EDEDED" stroke-width="1.38490566" x="605.896226" y="160.062992" width="31.8528302" height="31.8740157"></rect>
                <rect id="矩形" stroke="#EDEDED" stroke-width="1.38490566" x="637.749057" y="160.062992" width="31.8528302" height="31.8740157"></rect>
                <rect id="矩形" stroke="#EDEDED" stroke-width="1.38490566" x="669.601887" y="160.062992" width="31.8528302" height="31.8740157"></rect>
                <rect id="矩形" stroke="#EDEDED" stroke-width="1.38490566" x="701.454717" y="160.062992" width="31.8528302" height="31.8740157"></rect>
                <rect id="矩形" stroke="#EDEDED" stroke-width="1.38490566" x="0.69245283" y="191.937008" width="31.8528302" height="31.8740157"></rect>
                <rect id="矩形" stroke="#EDEDED" stroke-width="1.38490566" x="32.545283" y="191.937008" width="31.8528302" height="31.8740157"></rect>
                <rect id="矩形" stroke="#EDEDED" stroke-width="1.38490566" x="64.3981132" y="191.937008" width="31.8528302" height="31.8740157"></rect>
                <rect id="矩形" stroke="#EDEDED" stroke-width="1.38490566" x="96.2509434" y="191.937008" width="31.8528302" height="31.8740157"></rect>
                <rect id="矩形" stroke="#EDEDED" stroke-width="1.38490566" x="128.103774" y="191.937008" width="31.8528302" height="31.8740157"></rect>
                <rect id="矩形" stroke="#EDEDED" stroke-width="1.38490566" x="159.956604" y="191.937008" width="31.8528302" height="31.8740157"></rect>
                <rect id="矩形" stroke="#EDEDED" stroke-width="1.38490566" x="191.809434" y="191.937008" width="31.8528302" height="31.8740157"></rect>
                <rect id="矩形" stroke="#EDEDED" stroke-width="1.38490566" x="223.662264" y="191.937008" width="31.8528302" height="31.8740157"></rect>
                <rect id="矩形" stroke="#EDEDED" stroke-width="1.38490566" x="255.515094" y="191.937008" width="31.8528302" height="31.8740157"></rect>
                <rect id="矩形" stroke="#EDEDED" stroke-width="1.38490566" x="287.367925" y="191.937008" width="31.8528302" height="31.8740157"></rect>
                <rect id="矩形" stroke="#EDEDED" stroke-width="1.38490566" x="319.220755" y="191.937008" width="31.8528302" height="31.8740157"></rect>
                <rect id="矩形" stroke="#EDEDED" stroke-width="1.38490566" x="351.073585" y="191.937008" width="31.8528302" height="31.8740157"></rect>
                <rect id="矩形" stroke="#EDEDED" stroke-width="1.38490566" x="382.926415" y="191.937008" width="31.8528302" height="31.8740157"></rect>
                <rect id="矩形" stroke="#EDEDED" stroke-width="1.38490566" x="414.779245" y="191.937008" width="31.8528302" height="31.8740157"></rect>
                <rect id="矩形" stroke="#EDEDED" stroke-width="1.38490566" x="446.632075" y="191.937008" width="31.8528302" height="31.8740157"></rect>
                <rect id="矩形" stroke="#EDEDED" stroke-width="1.38490566" x="478.484906" y="191.937008" width="31.8528302" height="31.8740157"></rect>
                <rect id="矩形" stroke="#EDEDED" stroke-width="1.38490566" x="510.337736" y="191.937008" width="31.8528302" height="31.8740157"></rect>
                <rect id="矩形" stroke="#EDEDED" stroke-width="1.38490566" x="542.190566" y="191.937008" width="31.8528302" height="31.8740157"></rect>
                <rect id="矩形" stroke="#EDEDED" stroke-width="1.38490566" x="574.043396" y="191.937008" width="31.8528302" height="31.8740157"></rect>
                <rect id="矩形" stroke="#EDEDED" stroke-width="1.38490566" x="605.896226" y="191.937008" width="31.8528302" height="31.8740157"></rect>
                <rect id="矩形" stroke="#EDEDED" stroke-width="1.38490566" x="637.749057" y="191.937008" width="31.8528302" height="31.8740157"></rect>
                <rect id="矩形" stroke="#EDEDED" stroke-width="1.38490566" x="669.601887" y="191.937008" width="31.8528302" height="31.8740157"></rect>
                <rect id="矩形" stroke="#EDEDED" stroke-width="1.38490566" x="701.454717" y="191.937008" width="31.8528302" height="31.8740157"></rect>
                <rect id="矩形" stroke="#EDEDED" stroke-width="1.38490566" x="0.69245283" y="223.811024" width="31.8528302" height="31.8740157"></rect>
                <rect id="矩形" stroke="#EDEDED" stroke-width="1.38490566" x="32.545283" y="223.811024" width="31.8528302" height="31.8740157"></rect>
                <rect id="矩形" stroke="#EDEDED" stroke-width="1.38490566" x="64.3981132" y="223.811024" width="31.8528302" height="31.8740157"></rect>
                <rect id="矩形" stroke="#EDEDED" stroke-width="1.38490566" x="96.2509434" y="223.811024" width="31.8528302" height="31.8740157"></rect>
                <rect id="矩形" stroke="#EDEDED" stroke-width="1.38490566" x="128.103774" y="223.811024" width="31.8528302" height="31.8740157"></rect>
                <rect id="矩形" stroke="#EDEDED" stroke-width="1.38490566" x="159.956604" y="223.811024" width="31.8528302" height="31.8740157"></rect>
                <rect id="矩形" stroke="#EDEDED" stroke-width="1.38490566" x="191.809434" y="223.811024" width="31.8528302" height="31.8740157"></rect>
                <rect id="矩形" stroke="#EDEDED" stroke-width="1.38490566" x="223.662264" y="223.811024" width="31.8528302" height="31.8740157"></rect>
                <rect id="矩形" stroke="#EDEDED" stroke-width="1.38490566" x="255.515094" y="223.811024" width="31.8528302" height="31.8740157"></rect>
                <rect id="矩形" stroke="#EDEDED" stroke-width="1.38490566" x="287.367925" y="223.811024" width="31.8528302" height="31.8740157"></rect>
                <rect id="矩形" stroke="#EDEDED" stroke-width="1.38490566" x="319.220755" y="223.811024" width="31.8528302" height="31.8740157"></rect>
                <rect id="矩形" stroke="#EDEDED" stroke-width="1.38490566" x="351.073585" y="223.811024" width="31.8528302" height="31.8740157"></rect>
                <rect id="矩形" stroke="#EDEDED" stroke-width="1.38490566" x="382.926415" y="223.811024" width="31.8528302" height="31.8740157"></rect>
                <rect id="矩形" stroke="#EDEDED" stroke-width="1.38490566" x="414.779245" y="223.811024" width="31.8528302" height="31.8740157"></rect>
                <rect id="矩形" stroke="#EDEDED" stroke-width="1.38490566" x="446.632075" y="223.811024" width="31.8528302" height="31.8740157"></rect>
                <rect id="矩形" stroke="#EDEDED" stroke-width="1.38490566" x="478.484906" y="223.811024" width="31.8528302" height="31.8740157"></rect>
                <rect id="矩形" stroke="#EDEDED" stroke-width="1.38490566" x="510.337736" y="223.811024" width="31.8528302" height="31.8740157"></rect>
                <rect id="矩形" stroke="#EDEDED" stroke-width="1.38490566" x="542.190566" y="223.811024" width="31.8528302" height="31.8740157"></rect>
                <rect id="矩形" stroke="#EDEDED" stroke-width="1.38490566" x="574.043396" y="223.811024" width="31.8528302" height="31.8740157"></rect>
                <rect id="矩形" stroke="#EDEDED" stroke-width="1.38490566" x="605.896226" y="223.811024" width="31.8528302" height="31.8740157"></rect>
                <rect id="矩形" stroke="#EDEDED" stroke-width="1.38490566" x="637.749057" y="223.811024" width="31.8528302" height="31.8740157"></rect>
                <rect id="矩形" stroke="#EDEDED" stroke-width="1.38490566" x="669.601887" y="223.811024" width="31.8528302" height="31.8740157"></rect>
                <rect id="矩形" stroke="#EDEDED" stroke-width="1.38490566" x="701.454717" y="223.811024" width="31.8528302" height="31.8740157"></rect>
                <rect id="矩形" stroke="#EDEDED" stroke-width="1.38490566" x="0.69245283" y="255.685039" width="31.8528302" height="31.8740157"></rect>
                <rect id="矩形" stroke="#EDEDED" stroke-width="1.38490566" x="32.545283" y="255.685039" width="31.8528302" height="31.8740157"></rect>
                <rect id="矩形" stroke="#EDEDED" stroke-width="1.38490566" x="64.3981132" y="255.685039" width="31.8528302" height="31.8740157"></rect>
                <rect id="矩形" stroke="#EDEDED" stroke-width="1.38490566" x="96.2509434" y="255.685039" width="31.8528302" height="31.8740157"></rect>
                <rect id="矩形" stroke="#EDEDED" stroke-width="1.38490566" x="128.103774" y="255.685039" width="31.8528302" height="31.8740157"></rect>
                <rect id="矩形" stroke="#EDEDED" stroke-width="1.38490566" x="159.956604" y="255.685039" width="31.8528302" height="31.8740157"></rect>
                <rect id="矩形" stroke="#EDEDED" stroke-width="1.38490566" x="191.809434" y="255.685039" width="31.8528302" height="31.8740157"></rect>
                <rect id="矩形" stroke="#EDEDED" stroke-width="1.38490566" x="223.662264" y="255.685039" width="31.8528302" height="31.8740157"></rect>
                <rect id="矩形" stroke="#EDEDED" stroke-width="1.38490566" x="255.515094" y="255.685039" width="31.8528302" height="31.8740157"></rect>
                <rect id="矩形" stroke="#EDEDED" stroke-width="1.38490566" x="287.367925" y="255.685039" width="31.8528302" height="31.8740157"></rect>
                <rect id="矩形" stroke="#EDEDED" stroke-width="1.38490566" x="319.220755" y="255.685039" width="31.8528302" height="31.8740157"></rect>
                <rect id="矩形" stroke="#EDEDED" stroke-width="1.38490566" x="351.073585" y="255.685039" width="31.8528302" height="31.8740157"></rect>
                <rect id="矩形" stroke="#EDEDED" stroke-width="1.38490566" x="382.926415" y="255.685039" width="31.8528302" height="31.8740157"></rect>
                <rect id="矩形" stroke="#EDEDED" stroke-width="1.38490566" x="414.779245" y="255.685039" width="31.8528302" height="31.8740157"></rect>
                <rect id="矩形" stroke="#EDEDED" stroke-width="1.38490566" x="446.632075" y="255.685039" width="31.8528302" height="31.8740157"></rect>
                <rect id="矩形" stroke="#EDEDED" stroke-width="1.38490566" x="478.484906" y="255.685039" width="31.8528302" height="31.8740157"></rect>
                <rect id="矩形" stroke="#EDEDED" stroke-width="1.38490566" x="510.337736" y="255.685039" width="31.8528302" height="31.8740157"></rect>
                <rect id="矩形" stroke="#EDEDED" stroke-width="1.38490566" x="542.190566" y="255.685039" width="31.8528302" height="31.8740157"></rect>
                <rect id="矩形" stroke="#EDEDED" stroke-width="1.38490566" x="574.043396" y="255.685039" width="31.8528302" height="31.8740157"></rect>
                <rect id="矩形" stroke="#EDEDED" stroke-width="1.38490566" x="605.896226" y="255.685039" width="31.8528302" height="31.8740157"></rect>
                <rect id="矩形" stroke="#EDEDED" stroke-width="1.38490566" x="637.749057" y="255.685039" width="31.8528302" height="31.8740157"></rect>
                <rect id="矩形" stroke="#EDEDED" stroke-width="1.38490566" x="669.601887" y="255.685039" width="31.8528302" height="31.8740157"></rect>
                <rect id="矩形" stroke="#EDEDED" stroke-width="1.38490566" x="701.454717" y="255.685039" width="31.8528302" height="31.8740157"></rect>
                <rect id="矩形" stroke="#EDEDED" stroke-width="1.38490566" x="0.69245283" y="287.559055" width="31.8528302" height="31.8740157"></rect>
                <rect id="矩形" stroke="#EDEDED" stroke-width="1.38490566" x="32.545283" y="287.559055" width="31.8528302" height="31.8740157"></rect>
                <rect id="矩形" stroke="#EDEDED" stroke-width="1.38490566" x="64.3981132" y="287.559055" width="31.8528302" height="31.8740157"></rect>
                <rect id="矩形" stroke="#EDEDED" stroke-width="1.38490566" x="96.2509434" y="287.559055" width="31.8528302" height="31.8740157"></rect>
                <rect id="矩形" stroke="#EDEDED" stroke-width="1.38490566" x="128.103774" y="287.559055" width="31.8528302" height="31.8740157"></rect>
                <rect id="矩形" stroke="#EDEDED" stroke-width="1.38490566" x="159.956604" y="287.559055" width="31.8528302" height="31.8740157"></rect>
                <rect id="矩形" stroke="#EDEDED" stroke-width="1.38490566" x="191.809434" y="287.559055" width="31.8528302" height="31.8740157"></rect>
                <rect id="矩形" stroke="#EDEDED" stroke-width="1.38490566" x="223.662264" y="287.559055" width="31.8528302" height="31.8740157"></rect>
                <rect id="矩形" stroke="#EDEDED" stroke-width="1.38490566" x="255.515094" y="287.559055" width="31.8528302" height="31.8740157"></rect>
                <rect id="矩形" stroke="#EDEDED" stroke-width="1.38490566" x="287.367925" y="287.559055" width="31.8528302" height="31.8740157"></rect>
                <rect id="矩形" stroke="#EDEDED" stroke-width="1.38490566" x="319.220755" y="287.559055" width="31.8528302" height="31.8740157"></rect>
                <rect id="矩形" stroke="#EDEDED" stroke-width="1.38490566" x="351.073585" y="287.559055" width="31.8528302" height="31.8740157"></rect>
                <rect id="矩形" stroke="#EDEDED" stroke-width="1.38490566" x="382.926415" y="287.559055" width="31.8528302" height="31.8740157"></rect>
                <rect id="矩形" stroke="#EDEDED" stroke-width="1.38490566" x="414.779245" y="287.559055" width="31.8528302" height="31.8740157"></rect>
                <rect id="矩形" stroke="#EDEDED" stroke-width="1.38490566" x="446.632075" y="287.559055" width="31.8528302" height="31.8740157"></rect>
                <rect id="矩形" stroke="#EDEDED" stroke-width="1.38490566" x="478.484906" y="287.559055" width="31.8528302" height="31.8740157"></rect>
                <rect id="矩形" stroke="#EDEDED" stroke-width="1.38490566" x="510.337736" y="287.559055" width="31.8528302" height="31.8740157"></rect>
                <rect id="矩形" stroke="#EDEDED" stroke-width="1.38490566" x="542.190566" y="287.559055" width="31.8528302" height="31.8740157"></rect>
                <rect id="矩形" stroke="#EDEDED" stroke-width="1.38490566" x="574.043396" y="287.559055" width="31.8528302" height="31.8740157"></rect>
                <rect id="矩形" stroke="#EDEDED" stroke-width="1.38490566" x="605.896226" y="287.559055" width="31.8528302" height="31.8740157"></rect>
                <rect id="矩形" stroke="#EDEDED" stroke-width="1.38490566" x="637.749057" y="287.559055" width="31.8528302" height="31.8740157"></rect>
                <rect id="矩形" stroke="#EDEDED" stroke-width="1.38490566" x="669.601887" y="287.559055" width="31.8528302" height="31.8740157"></rect>
                <rect id="矩形" stroke="#EDEDED" stroke-width="1.38490566" x="701.454717" y="287.559055" width="31.8528302" height="31.8740157"></rect>
                <rect id="矩形" stroke="#EDEDED" stroke-width="1.38490566" x="0.69245283" y="319.433071" width="31.8528302" height="31.8740157"></rect>
                <rect id="矩形" stroke="#EDEDED" stroke-width="1.38490566" x="32.545283" y="319.433071" width="31.8528302" height="31.8740157"></rect>
                <rect id="矩形" stroke="#EDEDED" stroke-width="1.38490566" x="64.3981132" y="319.433071" width="31.8528302" height="31.8740157"></rect>
                <rect id="矩形" stroke="#EDEDED" stroke-width="1.38490566" x="96.2509434" y="319.433071" width="31.8528302" height="31.8740157"></rect>
                <rect id="矩形" stroke="#EDEDED" stroke-width="1.38490566" x="128.103774" y="319.433071" width="31.8528302" height="31.8740157"></rect>
                <rect id="矩形" stroke="#EDEDED" stroke-width="1.38490566" x="159.956604" y="319.433071" width="31.8528302" height="31.8740157"></rect>
                <rect id="矩形" stroke="#EDEDED" stroke-width="1.38490566" x="191.809434" y="319.433071" width="31.8528302" height="31.8740157"></rect>
                <rect id="矩形" stroke="#EDEDED" stroke-width="1.38490566" x="223.662264" y="319.433071" width="31.8528302" height="31.8740157"></rect>
                <rect id="矩形" stroke="#EDEDED" stroke-width="1.38490566" x="255.515094" y="319.433071" width="31.8528302" height="31.8740157"></rect>
                <rect id="矩形" stroke="#EDEDED" stroke-width="1.38490566" x="287.367925" y="319.433071" width="31.8528302" height="31.8740157"></rect>
                <rect id="矩形" stroke="#EDEDED" stroke-width="1.38490566" x="319.220755" y="319.433071" width="31.8528302" height="31.8740157"></rect>
                <rect id="矩形" stroke="#EDEDED" stroke-width="1.38490566" x="351.073585" y="319.433071" width="31.8528302" height="31.8740157"></rect>
                <rect id="矩形" stroke="#EDEDED" stroke-width="1.38490566" x="382.926415" y="319.433071" width="31.8528302" height="31.8740157"></rect>
                <rect id="矩形" stroke="#EDEDED" stroke-width="1.38490566" x="414.779245" y="319.433071" width="31.8528302" height="31.8740157"></rect>
                <rect id="矩形" stroke="#EDEDED" stroke-width="1.38490566" x="446.632075" y="319.433071" width="31.8528302" height="31.8740157"></rect>
                <rect id="矩形" stroke="#EDEDED" stroke-width="1.38490566" x="478.484906" y="319.433071" width="31.8528302" height="31.8740157"></rect>
                <rect id="矩形" stroke="#EDEDED" stroke-width="1.38490566" x="510.337736" y="319.433071" width="31.8528302" height="31.8740157"></rect>
                <rect id="矩形" stroke="#EDEDED" stroke-width="1.38490566" x="542.190566" y="319.433071" width="31.8528302" height="31.8740157"></rect>
                <rect id="矩形" stroke="#EDEDED" stroke-width="1.38490566" x="574.043396" y="319.433071" width="31.8528302" height="31.8740157"></rect>
                <rect id="矩形" stroke="#EDEDED" stroke-width="1.38490566" x="605.896226" y="319.433071" width="31.8528302" height="31.8740157"></rect>
                <rect id="矩形" stroke="#EDEDED" stroke-width="1.38490566" x="637.749057" y="319.433071" width="31.8528302" height="31.8740157"></rect>
                <rect id="矩形" stroke="#EDEDED" stroke-width="1.38490566" x="669.601887" y="319.433071" width="31.8528302" height="31.8740157"></rect>
                <rect id="矩形" stroke="#EDEDED" stroke-width="1.38490566" x="701.454717" y="319.433071" width="31.8528302" height="31.8740157"></rect>
                <polygon id="矩形" fill="url(#linearGradient-1)" fill-rule="nonzero" transform="translate(367.000000, 233.511811) rotate(-90.000000) translate(-367.000000, -233.511811) " points="248.511811 -133.488189 485.488189 -133.488189 485.488189 600.511811 248.511811 600.511811"></polygon>
                <rect id="矩形" fill="url(#linearGradient-2)" fill-rule="nonzero" x="4.54747351e-13" y="0" width="558" height="352"></rect>
            </g>
        </g>
    </g>
</svg>