<?xml version="1.0" encoding="UTF-8"?>
<svg width="16px" height="16px" viewBox="0 0 16 16" version="1.1" xmlns="http://www.w3.org/2000/svg" xmlns:xlink="http://www.w3.org/1999/xlink">
    <g id="页面-2" stroke="none" stroke-width="1" fill="none" fill-rule="evenodd">
        <g id="B_1.1-API文档" transform="translate(-544.000000, -226.000000)">
            <g id="编组-12" transform="translate(260.000000, 223.000000)">
                <g id="编组-18" transform="translate(56.000000, 0.000000)">
                    <g id="编组-13" transform="translate(228.000000, 0.000000)">
                        <g id="file" transform="translate(0.000000, 3.000000)">
                            <rect id="矩形" fill="#000000" opacity="0" x="0" y="0" width="16" height="16"></rect>
                            <g id="编组-40" transform="translate(2.666667, 1.333333)" fill="#7B8794">
                                <path d="M7.44771525,0 C7.80133724,0 8.14047579,0.140475787 8.39052429,0.390524292 L10.2761424,2.27614237 C10.5261909,2.52619088 10.6666667,2.86532943 10.6666667,3.21895142 L10.6666667,12 C10.6666667,12.7363797 10.069713,13.3333333 9.33333333,13.3333333 L1.33333333,13.3333333 C0.596953667,13.3333333 0,12.7363797 0,12 L0,1.33333333 C0,0.596953667 0.596953667,0 1.33333333,0 L7.44771525,0 Z M6.781,1 L1.33333333,1 C1.16969341,1 1.03359442,1.11791677 1.00537045,1.27341625 L1,1.33333333 L1,12 C1,12.1636399 1.11791677,12.2997389 1.27341625,12.3279629 L1.33333333,12.3333333 L9.33333333,12.3333333 C9.49697326,12.3333333 9.63307225,12.2154166 9.66129622,12.0599171 L9.66666667,12 L9.666,3.999 L7.2813539,4 C7.02822339,4 6.81902659,3.81189741 6.78591831,3.56784704 L6.7813539,3.5 L6.781,1 Z M7.61468723,9.33333333 C7.8908296,9.33333333 8.11468723,9.55719096 8.11468723,9.83333333 C8.11468723,10.1094757 7.8908296,10.3333333 7.61468723,10.3333333 L3.2813539,10.3333333 C3.00521152,10.3333333 2.7813539,10.1094757 2.7813539,9.83333333 C2.7813539,9.55719096 3.00521152,9.33333333 3.2813539,9.33333333 L7.61468723,9.33333333 Z M5.61468723,6.66666667 C5.8908296,6.66666667 6.11468723,6.89052429 6.11468723,7.16666667 C6.11468723,7.44280904 5.8908296,7.66666667 5.61468723,7.66666667 L3.2813539,7.66666667 C3.00521152,7.66666667 2.7813539,7.44280904 2.7813539,7.16666667 C2.7813539,6.89052429 3.00521152,6.66666667 3.2813539,6.66666667 L5.61468723,6.66666667 Z M7.781,1.195 L7.78133333,3 L9.583,2.999 L9.56903559,2.98324916 L7.781,1.195 Z" id="矩形"></path>
                            </g>
                        </g>
                    </g>
                </g>
            </g>
        </g>
    </g>
</svg>