<?xml version="1.0" encoding="UTF-8"?>
<svg width="16px" height="16px" viewBox="0 0 16 16" version="1.1" xmlns="http://www.w3.org/2000/svg" xmlns:xlink="http://www.w3.org/1999/xlink">
    <g id="页面-2" stroke="none" stroke-width="1" fill="none" fill-rule="evenodd">
        <g id="B_1.1-API文档" transform="translate(-652.000000, -226.000000)">
            <g id="编组-12" transform="translate(260.000000, 223.000000)">
                <g id="编组-18" transform="translate(56.000000, 0.000000)">
                    <g id="filter" transform="translate(336.000000, 3.000000)">
                        <rect id="矩形" fill="#000000" opacity="0" x="0" y="0" width="16" height="16"></rect>
                        <path d="M12.1305016,2.58627033 C12.4986914,2.58627033 12.7971682,2.88474717 12.7971682,3.252937 C12.7971682,3.37788348 12.7620553,3.50031523 12.6958338,3.60626963 L10,7.91960367 L10,13.1629093 C10,13.5310991 9.70152317,13.8295759 9.33333333,13.8295759 C9.17737566,13.8295759 9.02635373,13.7748984 8.90654373,13.6750568 L6.23987707,11.4528346 C6.08788201,11.326172 6,11.1385403 6,10.940687 L6,7.91960367 L3.30416623,3.60626963 C3.109026,3.29404527 3.20394145,2.88274502 3.5161658,2.6876048 C3.6221202,2.6213833 3.74455195,2.58627033 3.86949843,2.58627033 L12.1305016,2.58627033 Z M11.5286667,3.586 L4.47066667,3.586 L6.8479983,7.38960473 C6.9274641,7.51675001 6.97706571,7.65971354 6.99372772,7.80777204 L7,7.91960367 L7,10.784 L9,12.4513333 L9,7.91960367 C9,7.76966789 9.03370844,7.62214626 9.09804994,7.48776206 L9.1520017,7.38960473 L11.5286667,3.586 Z" id="路径-33" fill="#7B8794"></path>
                    </g>
                </g>
            </g>
        </g>
    </g>
</svg>