<?xml version="1.0" encoding="UTF-8"?>
<svg width="16px" height="16px" viewBox="0 0 16 16" version="1.1" xmlns="http://www.w3.org/2000/svg" xmlns:xlink="http://www.w3.org/1999/xlink">
    <g id="页面-2" stroke="none" stroke-width="1" fill="none" fill-rule="evenodd">
        <g id="B_1.1-API文档" transform="translate(-436.000000, -226.000000)">
            <g id="编组-12" transform="translate(260.000000, 223.000000)">
                <g id="编组-18" transform="translate(56.000000, 0.000000)">
                    <g id="编组-17" transform="translate(120.000000, 0.000000)">
                        <g id="label" transform="translate(0.000000, 3.000000)">
                            <rect id="矩形" fill="#000000" opacity="0" x="0" y="0" width="16" height="16"></rect>
                            <g id="编组" transform="translate(2.666667, 1.333333)" fill="#7B8794">
                                <path d="M9.33333333,0 C10.069713,0 10.6666667,0.596953667 10.6666667,1.33333333 L10.6666667,12.7939887 C10.6666667,12.9780836 10.5174282,13.127395 10.3333333,13.127395 C10.281585,13.127395 10.2305473,13.1152736 10.1842621,13.0921311 L5.33333333,10.6666667 L0.482404532,13.0921311 C0.317745033,13.1744608 0.117520686,13.1077194 0.0351909363,12.9430599 C0.0120483639,12.8967747 0,12.845737 0,12.7939887 L0,1.33333333 C0,0.596953667 0.596953667,0 1.33333333,0 L9.33333333,0 Z M9.33333333,1 L1.33333333,1 C1.16969341,1 1.03359442,1.11791677 1.00537045,1.27341625 L1,1.33333333 L1,11.7146667 L4.88611974,9.77223948 C5.1363664,9.64711615 5.42599654,9.63321355 5.68499508,9.7305317 L5.78054693,9.77223948 L9.66666667,11.7153333 L9.66666667,1.33333333 C9.66666667,1.16969341 9.54874989,1.03359442 9.39325042,1.00537045 L9.33333333,1 Z M7.5,3.33333333 C7.77614237,3.33333333 8,3.55719096 8,3.83333333 C8,4.10947571 7.77614237,4.33333333 7.5,4.33333333 L3.16666667,4.33333333 C2.89052429,4.33333333 2.66666667,4.10947571 2.66666667,3.83333333 C2.66666667,3.55719096 2.89052429,3.33333333 3.16666667,3.33333333 L7.5,3.33333333 Z" id="矩形"></path>
                            </g>
                        </g>
                    </g>
                </g>
            </g>
        </g>
    </g>
</svg>