<?xml version="1.0" encoding="UTF-8"?>
<svg width="16px" height="16px" viewBox="0 0 16 16" version="1.1" xmlns="http://www.w3.org/2000/svg" xmlns:xlink="http://www.w3.org/1999/xlink">
    <g id="页面-2" stroke="none" stroke-width="1" fill="none" fill-rule="evenodd">
        <g id="B_1.1-API文档" transform="translate(-332.000000, -227.000000)">
            <g id="编组-12" transform="translate(260.000000, 223.000000)">
                <g id="编组-18" transform="translate(56.000000, 0.000000)">
                    <g id="link" transform="translate(16.000000, 4.000000)">
                        <rect id="矩形" fill="#000000" opacity="0" x="0" y="0" width="16" height="16"></rect>
                        <path d="M7.68688672,2.22529462 C8.92354698,0.988634363 10.9285694,0.988634363 12.1652297,2.22529462 C13.3644154,3.42448032 13.4007543,5.34616637 12.2742466,6.58913997 L12.1652297,6.70363757 L7.92258898,10.9462783 C7.20662778,11.6622395 6.04582532,11.6622395 5.32986412,10.9462783 C4.64373464,10.2601488 4.61514591,9.16547584 5.24409793,8.44530106 L5.32986412,8.35355339 L8.62969577,5.05372175 C8.82495791,4.8584596 9.1415404,4.8584596 9.33680255,5.05372175 C9.51431359,5.23123279 9.53045096,5.50900858 9.38521465,5.70474957 L9.33680255,5.76082853 L6.0369709,9.06066017 C5.71153399,9.38609708 5.71153399,9.91373456 6.0369709,10.2391715 C6.34071202,10.5429126 6.8205923,10.563162 7.14781864,10.2999197 L7.2154822,10.2391715 L11.4581229,5.99653079 C12.3042589,5.15039482 12.3042589,3.77853737 11.4581229,2.9324014 C10.6433253,2.11760381 9.34102739,2.08742612 8.49011866,2.84186834 L8.39399351,2.9324014 L4.15135282,7.17504209 C2.7845178,8.54187711 2.7845178,10.7579545 4.15135282,12.1247896 C5.47913541,13.4525721 7.60832553,13.4905088 8.98190284,12.2385995 L9.10110029,12.1247896 L12.8723365,8.35355339 C13.0675986,8.15829124 13.3841811,8.15829124 13.5794432,8.35355339 C13.7569543,8.53106443 13.7730916,8.80884022 13.6278553,9.00458122 L13.5794432,9.06066017 L9.80820707,12.8318963 C8.05084775,14.5892557 5.20160535,14.5892557 3.44424604,12.8318963 C1.72775555,11.1154058 1.68783716,8.357227 3.32449089,6.59228588 L3.44424604,6.46793531 L7.68688672,2.22529462 Z" id="路径-25" fill="#0088CE"></path>
                    </g>
                </g>
            </g>
        </g>
    </g>
</svg>