<?xml version="1.0" encoding="UTF-8"?>
<svg width="16px" height="16px" viewBox="0 0 16 16" version="1.1" xmlns="http://www.w3.org/2000/svg" xmlns:xlink="http://www.w3.org/1999/xlink">
    <g id="页面-2" stroke="none" stroke-width="1" fill="none" fill-rule="evenodd">
        <g id="B_1.1-API文档" transform="translate(-746.000000, -226.000000)">
            <g id="编组-12" transform="translate(260.000000, 223.000000)">
                <g id="编组-18" transform="translate(56.000000, 0.000000)">
                    <g id="user" transform="translate(430.000000, 3.000000)">
                        <rect id="矩形" fill="#000000" opacity="0" x="0" y="0" width="16" height="16"></rect>
                        <path d="M8.72184023,9.11764706 C10.5791823,9.11764706 12.2941228,10.1128656 13.2156225,11.7254902 L14.0688071,13.2185631 C14.2729714,13.5758507 14.1488405,14.0309973 13.791553,14.2351616 C13.6789704,14.2994945 13.5515479,14.3333333 13.4218808,14.3333333 L2.5779917,14.3333333 C2.16648541,14.3333333 1.83289366,13.9997416 1.83289366,13.5882353 C1.83289366,13.4585682 1.86673252,13.3311457 1.93106543,13.2185631 L2.78424997,11.7254902 C3.70574972,10.1128656 5.42069016,9.11764706 7.27803227,9.11764706 L8.72184023,9.11764706 Z M8.72184023,10.1176471 L7.27803227,10.1176471 C5.83718106,10.1176471 4.5025505,10.8600033 3.74108758,12.073736 L3.65249312,12.2216291 L3.01666667,13.3326667 L12.982,13.3326667 L12.3473794,12.2216291 C11.632517,10.9706199 10.3258091,10.180148 8.89420263,10.121193 L8.72184023,10.1176471 Z M11.3528774,1.66666667 L11.3528774,5.01960784 C11.3528774,6.82265511 9.92968352,8.29329764 8.14537988,8.36945123 L7.99993625,8.37254902 C6.14815797,8.37254902 4.64699507,6.87138612 4.64699507,5.01960784 C4.64699507,3.22073752 6.06360267,1.75273362 7.84209788,1.67031615 L7.99993625,1.66666667 L11.3528774,1.66666667 Z M8.02305171,2.66639947 L7.88838933,2.66924413 C6.63712485,2.72722913 5.64699507,3.76149785 5.64699507,5.01960784 C5.64699507,6.31910137 6.70044272,7.37254902 7.99993625,7.37254902 C9.25611333,7.37254902 10.2823742,6.38816072 10.3493958,5.14870714 L10.3528774,5.01960784 L10.3526667,2.66666667 L8.02305171,2.66639947 Z" id="形状" fill="#7B8794"></path>
                    </g>
                </g>
            </g>
        </g>
    </g>
</svg>