<!-- Generated by IcoMoon.io -->
<svg version="1.1" xmlns="http://www.w3.org/2000/svg" width="32" height="32" viewBox="0 0 32 32">
<title>display</title>
<path d="M12.333 3.667h-7.333c-1.105 0-2 0.895-2 2v5.333c0 1.105 0.895 2 2 2h7.333c1.105 0 2-0.895 2-2v-5.333c0-1.105-0.895-2-2-2zM12.333 6.333v4c0 0.368-0.298 0.667-0.667 0.667h-6c-0.368 0-0.667-0.298-0.667-0.667v-4c0-0.368 0.298-0.667 0.667-0.667h6c0.368 0 0.667 0.298 0.667 0.667zM27 19h-7.333c-1.105 0-2 0.895-2 2v5.333c0 1.105 0.895 2 2 2h7.333c1.105 0 2-0.895 2-2v-5.333c0-1.105-0.895-2-2-2zM27 21.667v4c0 0.368-0.298 0.667-0.667 0.667h-6c-0.368 0-0.667-0.298-0.667-0.667v-4c0-0.368 0.298-0.667 0.667-0.667h6c0.368 0 0.667 0.298 0.667 0.667zM27 3.667h-7.333c-1.105 0-2 0.895-2 2v8c0 1.105 0.895 2 2 2h7.333c1.105 0 2-0.895 2-2v-8c0-1.105-0.895-2-2-2zM27 6.333v6.667c0 0.368-0.298 0.667-0.667 0.667h-6c-0.368 0-0.667-0.298-0.667-0.667v-6.667c0-0.368 0.298-0.667 0.667-0.667h6c0.368 0 0.667 0.298 0.667 0.667zM12.333 16.333h-7.333c-1.105 0-2 0.895-2 2v8c0 1.105 0.895 2 2 2h7.333c1.105 0 2-0.895 2-2v-8c0-1.105-0.895-2-2-2zM12.333 19v6.667c0 0.368-0.298 0.667-0.667 0.667h-6c-0.368 0-0.667-0.298-0.667-0.667v-6.667c0-0.368 0.298-0.667 0.667-0.667h6c0.368 0 0.667 0.298 0.667 0.667z"></path>
</svg>
