<!-- Generated by IcoMoon.io -->
<svg version="1.1" xmlns="http://www.w3.org/2000/svg" width="34" height="32" viewBox="0 0 34 32">
<title>feedback</title>
<path d="M16.889 2.5c5.891 0 10.667 4.776 10.667 10.667 0 4.293-2.536 7.994-6.192 9.686l-0.427 5.12c-0.072 0.864-0.794 1.528-1.661 1.528h-4.773c-0.867 0-1.589-0.664-1.661-1.528l-0.427-5.12c-3.656-1.692-6.192-5.392-6.192-9.686 0-5.891 4.776-10.667 10.667-10.667zM19.333 23.121h-4.889l0.366 4.378h4.159l0.365-4.378zM16.889 4.5c-4.787 0-8.667 3.88-8.667 8.667 0 3.381 1.954 6.397 4.921 7.819l0.3 0.136h6.889l0.301-0.136c2.865-1.373 4.785-4.231 4.914-7.47l0.007-0.348c0-4.787-3.88-8.667-8.667-8.667zM20.889 10.167c0.552 0 1 0.448 1 1v4c0 0.743-0.782 1.227-1.447 0.894l-3.553-1.777-3.553 1.777c-0.623 0.312-1.35-0.094-1.438-0.758l-0.009-0.136v-4c0-0.552 0.448-1 1-1s1 0.448 1 1v2.381l2.553-1.276c0.235-0.117 0.504-0.137 0.75-0.059l0.144 0.059 2.553 1.277v-2.383c0-0.506 0.376-0.925 0.864-0.991l0.136-0.009z"></path>
</svg>
