<!-- Generated by IcoMoon.io -->
<svg version="1.1" xmlns="http://www.w3.org/2000/svg" width="32" height="32" viewBox="0 0 32 32">
<title>general</title>
<path d="M25.333 4c1.473 0 2.667 1.194 2.667 2.667v18.667c0 1.473-1.194 2.667-2.667 2.667h-18.667c-1.473 0-2.667-1.194-2.667-2.667v-18.667c0-1.473 1.194-2.667 2.667-2.667h18.667zM10.333 12.333h-4.333v13c0 0.368 0.298 0.667 0.667 0.667h3.667v-13.667zM26 12.333h-13.667v13.667h13c0.368 0 0.667-0.298 0.667-0.667v-13zM25.333 6h-18.667c-0.368 0-0.667 0.298-0.667 0.667v3.667h20v-3.667c0-0.368-0.298-0.667-0.667-0.667z"></path>
</svg>
