<!-- Generated by IcoMoon.io -->
<svg version="1.1" xmlns="http://www.w3.org/2000/svg" width="32" height="32" viewBox="0 0 32 32">
<title>input</title>
<path d="M15.667 2.667c3.537 0 6.858 1.385 9.333 3.811 0.677 0.663 1.281 1.397 1.803 2.188 0.304 0.461 0.177 1.081-0.284 1.385s-1.081 0.177-1.385-0.284c-0.444-0.673-0.958-1.297-1.534-1.861-2.105-2.064-4.925-3.24-7.933-3.24-6.259 0-11.333 5.074-11.333 11.333s5.074 11.333 11.333 11.333c3.008 0 5.828-1.176 7.933-3.24 0.576-0.564 1.090-1.188 1.534-1.861 0.304-0.461 0.924-0.588 1.385-0.284s0.588 0.924 0.284 1.385c-0.522 0.791-1.127 1.524-1.803 2.188-2.476 2.427-5.796 3.811-9.333 3.811-7.364 0-13.333-5.97-13.333-13.333s5.97-13.333 13.333-13.333zM17.374 10.96c0.391 0.391 0.391 1.024 0 1.414l-2.294 2.293 7.391 0.001c0.411-1.455 1.698-2.542 3.255-2.657l0.274-0.010c2.025 0 3.667 1.642 3.667 3.667s-1.642 3.667-3.667 3.667c-1.678 0-3.093-1.127-3.528-2.666l-7.39-0.001 2.292 2.293c0.355 0.355 0.387 0.911 0.097 1.302l-0.097 0.112c-0.391 0.391-1.024 0.391-1.414 0l-4-4c-0.056-0.055-0.103-0.116-0.143-0.18-0.018-0.030-0.036-0.061-0.051-0.093-0.009-0.018-0.017-0.037-0.025-0.056-0.013-0.032-0.024-0.064-0.034-0.098-0.006-0.021-0.011-0.042-0.016-0.063-0.007-0.031-0.013-0.065-0.017-0.098-0.003-0.025-0.005-0.048-0.006-0.072-0.001-0.015-0.001-0.030-0.001-0.046l0.001-0.046c0.001-0.024 0.003-0.048 0.006-0.071l-0.007 0.117c0-0.075 0.008-0.148 0.024-0.218 0.004-0.020 0.010-0.040 0.016-0.061 0.010-0.034 0.021-0.067 0.034-0.099 0.008-0.019 0.016-0.038 0.025-0.057 0.015-0.032 0.033-0.063 0.051-0.093 0.011-0.018 0.023-0.036 0.036-0.054 0.032-0.045 0.068-0.087 0.107-0.125l4-4c0.391-0.391 1.024-0.391 1.414 0zM26 14c-0.92 0-1.667 0.746-1.667 1.667s0.746 1.667 1.667 1.667c0.92 0 1.667-0.746 1.667-1.667s-0.746-1.667-1.667-1.667z"></path>
</svg>
