<!-- Generated by IcoMoon.io -->
<svg version="1.1" xmlns="http://www.w3.org/2000/svg" width="34" height="32" viewBox="0 0 34 32">
<title>layout</title>
<path d="M26.222 4c1.473 0 2.667 1.194 2.667 2.667v18.667c0 1.473-1.194 2.667-2.667 2.667h-18.667c-1.473 0-2.667-1.194-2.667-2.667v-18.667c0-1.473 1.194-2.667 2.667-2.667h18.667zM26.222 6h-18.667c-0.368 0-0.667 0.298-0.667 0.667v18.667c0 0.368 0.298 0.667 0.667 0.667h18.667c0.368 0 0.667-0.298 0.667-0.667v-18.667c0-0.368-0.298-0.667-0.667-0.667zM17.022 8.667c0.736 0 1.333 0.597 1.333 1.333v4.533h4.533c0.736 0 1.333 0.597 1.333 1.333v6.133c0 0.736-0.597 1.333-1.333 1.333h-6.133c-0.736 0-1.333-0.597-1.333-1.333v-4.533h-4.533c-0.736 0-1.333-0.597-1.333-1.333v-6.133c0-0.736 0.597-1.333 1.333-1.333h6.133zM22.222 16.532h-4.801v4.801h4.801v-4.801zM16.356 10.667h-4.8v4.8h4.8v-4.8z"></path>
</svg>
