<!-- Generated by IcoMoon.io -->
<svg version="1.1" xmlns="http://www.w3.org/2000/svg" width="32" height="32" viewBox="0 0 32 32">
<title>nav</title>
<path d="M16 2.667c7.364 0 13.333 5.97 13.333 13.333s-5.97 13.333-13.333 13.333c-7.364 0-13.333-5.97-13.333-13.333s5.97-13.333 13.333-13.333zM16 4.667c-6.259 0-11.333 5.074-11.333 11.333s5.074 11.333 11.333 11.333c6.259 0 11.333-5.074 11.333-11.333s-5.074-11.333-11.333-11.333zM15.663 7.866c0.559-0.186 1.163 0.116 1.349 0.675l4.539 13.616c0.108 0.324 0.054 0.68-0.144 0.957-0.342 0.479-1.009 0.59-1.488 0.248l-3.92-2.8-3.917 2.799c-0.278 0.198-0.634 0.252-0.957 0.144-0.559-0.186-0.861-0.79-0.675-1.349l4.538-13.615c0.106-0.319 0.356-0.568 0.675-0.675zM16 11.829l-2.747 8.236 2.747-1.961 2.745 1.961-2.745-8.236z"></path>
</svg>
