<?xml version="1.0" encoding="UTF-8"?>
<svg width="19px" height="18px" viewBox="0 0 19 18" version="1.1" xmlns="http://www.w3.org/2000/svg" xmlns:xlink="http://www.w3.org/1999/xlink">
    <g id="页面-1" stroke="none" stroke-width="1" fill="none" fill-rule="evenodd">
        <g id="方案-6备份-27" transform="translate(-2819.000000, -362.000000)">
            <g id="-mockplus-" transform="translate(2795.500000, 348.000000)">
                <g id="编组" transform="translate(24.000000, 14.000000)">
                    <rect id="矩形" fill="#FFFFFF" opacity="0" x="0" y="0" width="18" height="18"></rect>
                    <path d="M10.0606602,1.5753788 L16.4246212,7.93933983 C17.0104076,8.52512627 17.0104076,9.47487373 16.4246212,10.0606602 L10.0606602,16.4246212 C9.47487373,17.0104076 8.52512627,17.0104076 7.93933983,16.4246212 L1.5753788,10.0606602 C0.98959236,9.47487373 0.98959236,8.52512627 1.5753788,7.93933983 L7.93933983,1.5753788 C8.52512627,0.98959236 9.47487373,0.98959236 10.0606602,1.5753788 Z M8.73483496,2.37087393 L2.37087393,8.73483496 C2.22442732,8.88128157 2.22442732,9.11871843 2.37087393,9.26516504 L8.73483496,15.6291261 C8.88128157,15.7755727 9.11871843,15.7755727 9.26516504,15.6291261 L15.6291261,9.26516504 C15.7755727,9.11871843 15.7755727,8.88128157 15.6291261,8.73483496 L9.26516504,2.37087393 C9.11871843,2.22442732 8.88128157,2.22442732 8.73483496,2.37087393 Z M8.92005445,6.18750516 C9.23071462,6.18750516 9.48255445,6.43934498 9.48255445,6.75000516 L9.48203897,8.43728897 L11.1700545,8.43750516 C11.4807146,8.43750516 11.7325545,8.68934498 11.7325545,9.00000516 C11.7325545,9.31066533 11.4807146,9.56250516 11.1700545,9.56250516 L9.48203897,9.56228897 L9.48255445,11.2500052 C9.48255445,11.5606653 9.23071462,11.8125052 8.92005445,11.8125052 C8.60939428,11.8125052 8.35755445,11.5606653 8.35755445,11.2500052 L8.35703897,9.56228897 L6.67005445,9.56250516 C6.35939428,9.56250516 6.10755445,9.31066533 6.10755445,9.00000516 C6.10755445,8.68934498 6.35939428,8.43750516 6.67005445,8.43750516 L8.35703897,8.43728897 L8.35755445,6.75000516 C8.35755445,6.43934498 8.60939428,6.18750516 8.92005445,6.18750516 Z" id="形状" fill="#1D2129" fill-rule="nonzero"></path>
                </g>
            </g>
        </g>
    </g>
</svg>