<!-- Generated by IcoMoon.io -->
<svg version="1.1" xmlns="http://www.w3.org/2000/svg" width="32" height="32" viewBox="0 0 32 32">
<title>api</title>
<path d="M20 2.667l0.001 0.014c0.204 0.031 0.4 0.125 0.557 0.282l5.827 5.827c0.154 0.154 0.247 0.345 0.28 0.544l0.005 0.033c0.011 0.086 0.011 0.174 0 0.26l-0.003 17.040c0 1.473-1.194 2.667-2.667 2.667h-16c-1.473 0-2.667-1.194-2.667-2.667v-21.333c0-1.473 1.194-2.667 2.667-2.667h12zM18 4.667h-10c-0.368 0-0.667 0.298-0.667 0.667v21.333c0 0.368 0.298 0.667 0.667 0.667h16c0.368 0 0.667-0.298 0.667-0.667v-15.333h-5.333c-0.736 0-1.333-0.597-1.333-1.333v-5.333zM18.707 15.293l3.333 3.333c0.391 0.391 0.391 1.024 0 1.414l-3.333 3.333c-0.391 0.391-1.024 0.391-1.414 0s-0.391-1.024 0-1.414l2.626-2.626-2.626-2.626c-0.355-0.355-0.387-0.911-0.097-1.302l0.097-0.112c0.391-0.391 1.024-0.391 1.414 0zM14.707 15.293c0.391 0.391 0.391 1.024 0 1.414l-2.626 2.626 2.626 2.626c0.355 0.355 0.387 0.911 0.097 1.302l-0.097 0.112c-0.391 0.391-1.024 0.391-1.414 0l-3.333-3.333c-0.391-0.391-0.391-1.024 0-1.414l3.333-3.333c0.391-0.391 1.024-0.391 1.414 0zM20 5.233v4.1h4.101l-4.101-4.1z"></path>
</svg>
