<!-- Generated by IcoMoon.io -->
<svg version="1.1" xmlns="http://www.w3.org/2000/svg" width="32" height="32" viewBox="0 0 32 32">
<title>comment</title>
<path d="M26.667 4.333c1.473 0 2.667 1.194 2.667 2.667v14.667c0 1.473-1.194 2.667-2.667 2.667h-11.333l-5.702 2.851c-0.329 0.165-0.73 0.031-0.894-0.298-0.046-0.093-0.070-0.195-0.070-0.298v-2.255h-3.333c-1.473 0-2.667-1.194-2.667-2.667v-14.667c0-1.473 1.194-2.667 2.667-2.667h21.333zM26.667 6.333h-21.333c-0.368 0-0.667 0.298-0.667 0.667v14.667c0 0.368 0.298 0.667 0.667 0.667h5.333v2.097l4.195-2.097h11.805c0.368 0 0.667-0.298 0.667-0.667v-14.667c0-0.368-0.298-0.667-0.667-0.667zM9.333 12.333c0.552 0 1 0.448 1 1v2c0 0.552-0.448 1-1 1s-1-0.448-1-1v-2c0-0.552 0.448-1 1-1zM16 12.333c0.552 0 1 0.448 1 1v2c0 0.552-0.448 1-1 1s-1-0.448-1-1v-2c0-0.552 0.448-1 1-1zM22.667 12.333c0.552 0 1 0.448 1 1v2c0 0.552-0.448 1-1 1s-1-0.448-1-1v-2c0-0.552 0.448-1 1-1z"></path>
</svg>
