<!-- Generated by IcoMoon.io -->
<svg version="1.1" xmlns="http://www.w3.org/2000/svg" width="32" height="32" viewBox="0 0 32 32">
<title>delete</title>
<path d="M19.657 2.667c1.221 0 2.286 0.819 2.585 1.988l0.585 2.286 4.853 0.001c0.545 0 0.987 0.442 0.987 0.987s-0.442 0.987-0.987 0.987l-1.797-0.002-1.068 17.941c-0.083 1.392-1.25 2.479-2.662 2.479h-12.304c-1.412 0-2.579-1.087-2.662-2.479l-1.068-17.941-1.797 0.002c-0.545 0-0.987-0.442-0.987-0.987s0.442-0.987 0.987-0.987l4.851-0.001 0.586-2.286c0.299-1.169 1.364-1.988 2.585-1.988h7.313zM23.879 8.919h-15.759l1.062 17.82c0.018 0.309 0.251 0.558 0.55 0.61l0.115 0.010h12.304c0.314 0 0.579-0.215 0.649-0.507l0.017-0.113 1.061-17.82zM18.909 21.433c0.602 0 1.091 0.442 1.091 0.988 0 0.5-0.41 0.913-0.943 0.979l-0.148 0.009h-5.818c-0.602 0-1.091-0.442-1.091-0.988 0-0.5 0.41-0.913 0.943-0.979l0.148-0.009h5.818zM19.657 4.641h-7.313c-0.267 0-0.504 0.157-0.61 0.392l-0.037 0.105-0.462 1.805h9.529l-0.461-1.805c-0.065-0.256-0.277-0.444-0.534-0.488l-0.112-0.009z"></path>
</svg>
