<!-- Generated by IcoMoon.io -->
<svg version="1.1" xmlns="http://www.w3.org/2000/svg" width="32" height="32" viewBox="0 0 32 32">
<title>design</title>
<path d="M24 2.667c1.473 0 2.667 1.194 2.667 2.667v21.333c0 1.473-1.194 2.667-2.667 2.667h-16c-1.473 0-2.667-1.194-2.667-2.667v-21.333c0-1.473 1.194-2.667 2.667-2.667h16zM24 4.667h-16c-0.368 0-0.667 0.298-0.667 0.667v21.333c0 0.368 0.298 0.667 0.667 0.667h16c0.368 0 0.667-0.298 0.667-0.667v-21.333c0-0.368-0.298-0.667-0.667-0.667zM19 23c0.552 0 1 0.448 1 1s-0.448 1-1 1h-7.333c-0.552 0-1-0.448-1-1s0.448-1 1-1h7.333zM19 19c0.552 0 1 0.448 1 1s-0.448 1-1 1h-7.333c-0.552 0-1-0.448-1-1s0.448-1 1-1h7.333zM18.667 8c0.736 0 1.333 0.597 1.333 1.333v4c0 0.736-0.597 1.333-1.333 1.333h-6.667c-0.736 0-1.333-0.597-1.333-1.333v-4c0-0.736 0.597-1.333 1.333-1.333h6.667zM18 10h-5.333v2.667h5.333v-2.667z"></path>
</svg>
