<!-- Generated by IcoMoon.io -->
<svg version="1.1" xmlns="http://www.w3.org/2000/svg" width="32" height="32" viewBox="0 0 32 32">
<title>edit</title>
<path d="M4.925 27.338c-0.414 0-0.765-0.296-0.882-0.703-0.046-0.146-0.059-0.307-0.029-0.473l0.975-5.473c0.036-0.201 0.133-0.387 0.277-0.531l16.035-16.045c0.391-0.391 1.024-0.391 1.415-0l4.513 4.515c0.39 0.39 0.39 1.023-0 1.414l-15.297 15.294 15.146 0.002c0.51 0 0.923 0.448 0.923 1 0 0.506-0.347 0.925-0.798 0.991l-0.125 0.009h-22.154zM18.473 9.772l-11.57 11.577-0.669 3.752 3.777-0.669 11.561-11.561-3.099-3.099zM22.009 6.234l-2.123 2.122 3.099 3.099 2.123-2.121-3.099-3.1z"></path>
</svg>
