<!-- Generated by IcoMoon.io -->
<svg version="1.1" xmlns="http://www.w3.org/2000/svg" width="32" height="32" viewBox="0 0 32 32">
<title>topic</title>
<path d="M25.333 4c1.473 0 2.667 1.194 2.667 2.667v18.667c0 1.473-1.194 2.667-2.667 2.667h-18.667c-1.473 0-2.667-1.194-2.667-2.667v-18.667c0-1.473 1.194-2.667 2.667-2.667h18.667zM25.333 6h-18.667c-0.368 0-0.667 0.298-0.667 0.667v18.667c0 0.368 0.298 0.667 0.667 0.667h18.667c0.368 0 0.667-0.298 0.667-0.667v-18.667c0-0.368-0.298-0.667-0.667-0.667zM16 16.333c3.888 0 7.040 3.152 7.040 7.040 0 0.53-0.43 0.96-0.96 0.96s-0.96-0.43-0.96-0.96c0-2.828-2.292-5.12-5.12-5.12s-5.12 2.292-5.12 5.12c0 0.53-0.43 0.96-0.96 0.96s-0.96-0.43-0.96-0.96c0-3.888 3.152-7.040 7.040-7.040zM16 7.667c2.393 0 4.333 1.94 4.333 4.333s-1.94 4.333-4.333 4.333c-2.393 0-4.333-1.94-4.333-4.333s1.94-4.333 4.333-4.333zM16 9.667c-1.289 0-2.333 1.045-2.333 2.333s1.045 2.333 2.333 2.333c1.289 0 2.333-1.045 2.333-2.333s-1.045-2.333-2.333-2.333z"></path>
</svg>
