<?xml version="1.0" encoding="UTF-8"?>
<svg width="18px" height="18px" viewBox="0 0 18 18" version="1.1" xmlns="http://www.w3.org/2000/svg" xmlns:xlink="http://www.w3.org/1999/xlink">
    <g id="页面-1" stroke="none" stroke-width="1" fill="none" fill-rule="evenodd">
        <g id="方案-6备份-27" transform="translate(-24.000000, -225.000000)">
            <g id="-mockplus-" transform="translate(0.000000, 65.000000)">
                <g id="-mockplus-" transform="translate(0.000000, 146.000000)">
                    <g id="sidebar/通用" transform="translate(24.000000, 14.000000)">
                        <rect id="矩形" fill="#D8D8D8" opacity="0" x="0" y="0" width="18" height="18"></rect>
                        <g id="编组" transform="translate(1.500000, 1.500000)" fill="#1D2129" fill-rule="nonzero">
                            <path d="M7.5,0 C11.6421375,0 15,3.3578625 15,7.5 C15,11.6421375 11.6421375,15 7.5,15 C3.3578625,15 0,11.6421375 0,7.5 C0,3.3578625 3.3578625,0 7.5,0 Z M7.5,1.125 C3.97918284,1.125 1.125,3.97918284 1.125,7.5 C1.125,11.0208172 3.97918284,13.875 7.5,13.875 C11.0208172,13.875 13.875,11.0208172 13.875,7.5 C13.875,3.97918284 11.0208172,1.125 7.5,1.125 Z M7.31026334,2.92437545 C7.62462933,2.81958679 7.96442132,2.98948278 8.06920999,3.30384878 L10.622172,10.9627349 C10.6828754,11.144845 10.6527781,11.3450065 10.5412038,11.5012121 C10.3485998,11.7708606 9.97387,11.8333174 9.7042215,11.6407133 L7.49925,10.06575 L5.29606197,11.6400766 C5.13984481,11.7517043 4.93963984,11.7818277 4.7574913,11.7211115 C4.4431253,11.6163229 4.27322931,11.2765309 4.37801798,10.9621649 L6.93079001,3.30384878 C6.99051101,3.12468578 7.13110034,2.98409645 7.31026334,2.92437545 Z M7.5,5.154 L5.955,9.78675 L7.5,8.68374172 L9.04425,9.78675 L7.5,5.154 Z" id="形状"></path>
                        </g>
                    </g>
                </g>
            </g>
        </g>
    </g>
</svg>