<?xml version="1.0" encoding="UTF-8"?>
<svg width="18px" height="18px" viewBox="0 0 18 18" version="1.1" xmlns="http://www.w3.org/2000/svg" xmlns:xlink="http://www.w3.org/1999/xlink">
    <g id="页面-1" stroke="none" stroke-width="1" fill="none" fill-rule="evenodd">
        <g id="方案-6备份-27" transform="translate(-24.000000, -515.000000)">
            <g id="-mockplus-" transform="translate(0.000000, 65.000000)">
                <g id="-mockplus-" transform="translate(0.000000, 436.000000)">
                    <g id="编组" transform="translate(24.000000, 14.000000)">
                        <rect id="矩形" fill="#D8D8D8" opacity="0" x="0" y="0" width="18" height="18"></rect>
                        <path d="M8.8125,1.5 C10.8020226,1.5 12.6700461,2.27887929 14.0625278,3.64395134 C14.4431291,4.01706684 14.7833505,4.4296958 15.0768989,4.87458292 C15.2479924,5.13388347 15.1764864,5.48278674 14.9171858,5.65388018 C14.6578853,5.82497362 14.308982,5.75346763 14.1378886,5.49416708 C13.8882278,5.11579391 13.5987893,4.7647557 13.2749754,4.44731073 C12.0907275,3.28637357 10.5045236,2.625 8.8125,2.625 C5.29168298,2.625 2.4375,5.47918298 2.4375,9 C2.4375,12.520817 5.29168298,15.375 8.8125,15.375 C10.5045328,15.375 12.0907347,14.7136331 13.2749662,13.5527087 C13.5987919,13.2352425 13.888231,12.8842012 14.1378886,12.5058329 C14.308982,12.2465324 14.6578853,12.1750264 14.9171858,12.3461198 C15.1764864,12.5172133 15.2479924,12.8661165 15.0768989,13.1254171 C14.783356,13.5702959 14.4431378,13.9829237 14.0625251,14.3560616 C12.6700532,15.721128 10.8020307,16.5 8.8125,16.5 C4.67036264,16.5 1.3125,13.1421374 1.3125,9 C1.3125,4.85786264 4.67036264,1.5 8.8125,1.5 Z M9.77274756,6.16475244 C9.99241748,6.38442235 9.99241748,6.74057765 9.77274756,6.96024756 L8.4825,8.25 L12.6400417,8.25033761 C12.8713581,7.43195625 13.5951511,6.82028031 14.4710732,6.75565717 L14.625,6.75 C15.7640873,6.75 16.6875,7.6734127 16.6875,8.8125 C16.6875,9.9515873 15.7640873,10.875 14.625,10.875 C13.681154,10.875 12.8853849,10.2410075 12.6403216,9.37565146 L8.4835,9.375 L9.77274756,10.6647524 C9.97244749,10.8644524 9.99060202,11.1769501 9.82721118,11.3971587 L9.77274756,11.4602476 C9.55307765,11.6799175 9.19692235,11.6799175 8.97725244,11.4602476 L6.72725244,9.21024756 L6.67102987,9.14470519 L6.72725244,9.21024756 C6.6960332,9.17902833 6.6692508,9.14505239 6.64690525,9.10910331 C6.63650845,9.09230491 6.62680948,9.07469798 6.61805641,9.05654915 C6.61310896,9.04634488 6.60837586,9.03568324 6.60399041,9.02491321 C6.59669192,9.00703982 6.590278,8.988669 6.58481648,8.9698927 C6.58139045,8.95791805 6.57840863,8.94622186 6.57580798,8.93445836 C6.57183006,8.9168056 6.56864175,8.89809395 6.56640057,8.87909233 C6.56480203,8.86522875 6.56371175,8.8518656 6.56309678,8.83848467 C6.56270558,8.83020399 6.5625,8.821376 6.5625,8.8125 L6.56309678,8.78651533 C6.56371175,8.7731344 6.56480203,8.75977125 6.56636761,8.74645334 L6.5625,8.8125 C6.5625,8.77036448 6.56713287,8.72931103 6.575917,8.68982124 C6.57840863,8.67877814 6.58139045,8.66708195 6.58475343,8.65547279 C6.590278,8.636331 6.59669192,8.61796018 6.60400249,8.60005061 C6.60837586,8.58931676 6.61310896,8.57865512 6.61818971,8.56811907 C6.62680948,8.55030202 6.63650845,8.53269509 6.64708934,8.51569403 C6.65334848,8.50553096 6.6601606,8.49532927 6.66734161,8.48531042 C6.68551998,8.46003163 6.70549952,8.43650535 6.72725244,8.41475244 L8.97725244,6.16475244 C9.19692235,5.94508252 9.55307765,5.94508252 9.77274756,6.16475244 Z M14.625,7.875 C14.107233,7.875 13.6875,8.29473305 13.6875,8.8125 C13.6875,9.33026695 14.107233,9.75 14.625,9.75 C15.142767,9.75 15.5625,9.33026695 15.5625,8.8125 C15.5625,8.29473305 15.142767,7.875 14.625,7.875 Z" id="形状结合" fill="#1D2129" fill-rule="nonzero"></path>
                    </g>
                </g>
            </g>
        </g>
    </g>
</svg>