<?xml version="1.0" encoding="UTF-8"?>
<svg width="18px" height="18px" viewBox="0 0 18 18" version="1.1" xmlns="http://www.w3.org/2000/svg" xmlns:xlink="http://www.w3.org/1999/xlink">
    <g id="页面-1" stroke="none" stroke-width="1" fill="none" fill-rule="evenodd">
        <g id="方案-6备份-27" transform="translate(-24.000000, -765.000000)">
            <g id="-mockplus-" transform="translate(0.000000, 65.000000)">
                <g id="-mockplus-" transform="translate(0.000000, 686.000000)">
                    <g id="编组" transform="translate(24.000000, 14.000000)">
                        <rect id="矩形" fill="#D8D8D8" opacity="0" x="0" y="0" width="18" height="18"></rect>
                        <path d="M6.9375,2.0625 L2.8125,2.0625 C2.19117966,2.0625 1.6875,2.56617966 1.6875,3.1875 L1.6875,6.1875 C1.6875,6.80882034 2.19117966,7.3125 2.8125,7.3125 L6.9375,7.3125 C7.55882034,7.3125 8.0625,6.80882034 8.0625,6.1875 L8.0625,3.1875 C8.0625,2.56617966 7.55882034,2.0625 6.9375,2.0625 Z M6.9375,3.5625 L6.9375,5.8125 C6.9375,6.01960678 6.76960678,6.1875 6.5625,6.1875 L3.1875,6.1875 C2.98039322,6.1875 2.8125,6.01960678 2.8125,5.8125 L2.8125,3.5625 C2.8125,3.35539322 2.98039322,3.1875 3.1875,3.1875 L6.5625,3.1875 C6.76960678,3.1875 6.9375,3.35539322 6.9375,3.5625 Z M15.1875,10.6875 L11.0625,10.6875 C10.4411797,10.6875 9.9375,11.1911797 9.9375,11.8125 L9.9375,14.8125 C9.9375,15.4338203 10.4411797,15.9375 11.0625,15.9375 L15.1875,15.9375 C15.8088203,15.9375 16.3125,15.4338203 16.3125,14.8125 L16.3125,11.8125 C16.3125,11.1911797 15.8088203,10.6875 15.1875,10.6875 Z M15.1875,12.1875 L15.1875,14.4375 C15.1875,14.6446068 15.0196068,14.8125 14.8125,14.8125 L11.4375,14.8125 C11.2303932,14.8125 11.0625,14.6446068 11.0625,14.4375 L11.0625,12.1875 C11.0625,11.9803932 11.2303932,11.8125 11.4375,11.8125 L14.8125,11.8125 C15.0196068,11.8125 15.1875,11.9803932 15.1875,12.1875 Z M15.1875,2.0625 L11.0625,2.0625 C10.4411797,2.0625 9.9375,2.56617966 9.9375,3.1875 L9.9375,7.6875 C9.9375,8.30882034 10.4411797,8.8125 11.0625,8.8125 L15.1875,8.8125 C15.8088203,8.8125 16.3125,8.30882034 16.3125,7.6875 L16.3125,3.1875 C16.3125,2.56617966 15.8088203,2.0625 15.1875,2.0625 Z M15.1875,3.5625 L15.1875,7.3125 C15.1875,7.51960678 15.0196068,7.6875 14.8125,7.6875 L11.4375,7.6875 C11.2303932,7.6875 11.0625,7.51960678 11.0625,7.3125 L11.0625,3.5625 C11.0625,3.35539322 11.2303932,3.1875 11.4375,3.1875 L14.8125,3.1875 C15.0196068,3.1875 15.1875,3.35539322 15.1875,3.5625 Z M6.9375,9.1875 L2.8125,9.1875 C2.19117966,9.1875 1.6875,9.69117966 1.6875,10.3125 L1.6875,14.8125 C1.6875,15.4338203 2.19117966,15.9375 2.8125,15.9375 L6.9375,15.9375 C7.55882034,15.9375 8.0625,15.4338203 8.0625,14.8125 L8.0625,10.3125 C8.0625,9.69117966 7.55882034,9.1875 6.9375,9.1875 Z M6.9375,10.6875 L6.9375,14.4375 C6.9375,14.6446068 6.76960678,14.8125 6.5625,14.8125 L3.1875,14.8125 C2.98039322,14.8125 2.8125,14.6446068 2.8125,14.4375 L2.8125,10.6875 C2.8125,10.4803932 2.98039322,10.3125 3.1875,10.3125 L6.5625,10.3125 C6.76960678,10.3125 6.9375,10.4803932 6.9375,10.6875 Z" id="形状" fill="#1D2129" fill-rule="nonzero"></path>
                    </g>
                </g>
            </g>
        </g>
    </g>
</svg>