<?xml version="1.0" encoding="UTF-8"?>
<svg width="18px" height="18px" viewBox="0 0 18 18" version="1.1" xmlns="http://www.w3.org/2000/svg" xmlns:xlink="http://www.w3.org/1999/xlink">
    <g id="页面-1" stroke="none" stroke-width="1" fill="none" fill-rule="evenodd">
        <g id="方案-6备份-27" transform="translate(-24.000000, -95.000000)">
            <g id="-mockplus-" transform="translate(0.000000, 65.000000)">
                <g id="-mockplus-" transform="translate(0.000000, 16.000000)">
                    <g id="编组" transform="translate(24.000000, 14.000000)">
                        <rect id="矩形" fill="#D8D8D8" opacity="0" x="0" y="0" width="18" height="18"></rect>
                        <path d="M14.25,2.25 C15.0784271,2.25 15.75,2.92157288 15.75,3.75 L15.75,14.25 C15.75,15.0784271 15.0784271,15.75 14.25,15.75 L3.75,15.75 C2.92157288,15.75 2.25,15.0784271 2.25,14.25 L2.25,3.75 C2.25,2.92157288 2.92157288,2.25 3.75,2.25 L14.25,2.25 Z M5.8125,6.9375 L3.375,6.9375 L3.375,14.25 C3.375,14.4571068 3.54289322,14.625 3.75,14.625 L5.8125,14.625 L5.8125,6.9375 Z M14.625,6.9375 L6.9375,6.9375 L6.9375,14.625 L14.25,14.625 C14.4571068,14.625 14.625,14.4571068 14.625,14.25 L14.625,6.9375 Z M14.25,3.375 L3.75,3.375 C3.54289322,3.375 3.375,3.54289322 3.375,3.75 L3.375,5.8125 L14.625,5.8125 L14.625,3.75 C14.625,3.54289322 14.4571068,3.375 14.25,3.375 Z" id="形状" fill="#1D2129" fill-rule="nonzero"></path>
                    </g>
                </g>
            </g>
        </g>
    </g>
</svg>