<?xml version="1.0" encoding="UTF-8"?>
<svg width="18px" height="18px" viewBox="0 0 18 18" version="1.1" xmlns="http://www.w3.org/2000/svg" xmlns:xlink="http://www.w3.org/1999/xlink">
    <g id="页面-1" stroke="none" stroke-width="1" fill="none" fill-rule="evenodd">
        <g id="方案-6备份-27" transform="translate(-1545.000000, -177.000000)">
            <g id="下拉菜单备份-3" transform="translate(1533.000000, 168.000000)">
                <g id="Icons/版本列表" transform="translate(12.000000, 9.000000)">
                    <rect id="矩形" fill="#D8D8D8" opacity="0" x="0" y="0" width="18" height="18"></rect>
                    <g id="编组" transform="translate(1.687783, 1.687500)" fill="#1D2129" fill-rule="nonzero">
                        <path d="M7.31221655,0 C5.55180755,0 4.12471655,1.42709241 4.12471655,3.1875 C4.12471655,4.94791017 5.55180638,6.375 7.31221655,6.375 C9.07262672,6.375 10.4997166,4.94791017 10.4997166,3.1875 C10.4997166,1.42709241 9.07262555,0 7.31221655,0 Z M7.31221655,1.125 C8.45130496,1.125 9.37471655,2.0484125 9.37471655,3.1875 C9.37471655,4.32658983 8.45130638,5.25 7.31221655,5.25 C6.17312672,5.25 5.24971655,4.32658983 5.24971655,3.1875 C5.24971655,2.0484125 6.17312814,1.125 7.31221655,1.125 Z M4.90447852,8.25028244 C3.18786068,8.25361757 2.57629112,8.31657231 1.94489623,8.6382653 C1.27455507,8.9798217 0.729555574,9.52483273 0.388005466,10.1951701 C0.0662930386,10.826567 0.00333433808,11.4381399 7.30062191e-08,13.1536687 C-0.000253114889,13.9660093 0.658073812,14.6247467 1.47041442,14.6249999 C1.47056723,14.625 1.47072004,14.625 1.47087286,14.625 L13.1777646,14.625 C13.9765083,14.625 14.624018,13.9774903 14.624018,13.1787465 C14.624018,13.1785138 14.624018,13.178281 14.6240179,13.1780482 L14.6240179,13.1780482 L14.6240179,13.1780482 C14.6173471,11.3259015 14.5578993,10.8260938 14.2364513,10.1951797 C13.8948903,9.52483854 13.349878,8.97982622 12.6795517,8.63827286 C12.0755946,8.33055929 11.4897899,8.25958102 9.93864361,8.25107286 L4.90447852,8.25028244 Z M4.7039172,9.37600544 L9.71886138,9.37528138 L10.4555195,9.38249904 C11.4267079,9.40268764 11.832531,9.46932125 12.1688212,9.6406597 C12.6274551,9.87434878 13.0003678,10.2472615 13.2340644,10.7059102 L13.2576638,10.7538067 C13.43226,11.1209677 13.4847659,11.5427094 13.4967245,12.8288811 L13.4972906,12.9983296 C13.4982131,13.2744705 13.2751046,13.4990747 12.9989638,13.4999972 C12.998407,13.4999991 12.9978502,13.5 12.9972934,13.5 L1.62635661,13.5 C1.35021423,13.5 1.12635661,13.2761424 1.12635661,13 C1.12635661,12.9994542 1.1263575,12.9989084 1.12635929,12.9983626 L1.12712724,12.7638575 L1.12712724,12.7638575 C1.13889011,11.5390548 1.20000397,11.0795591 1.39038908,10.7059069 C1.62408441,10.2472489 1.99698144,9.87434393 2.45562401,9.64065351 C2.84795107,9.44076456 3.33493101,9.3833849 4.7039172,9.37600544 Z" id="形状结合"></path>
                    </g>
                </g>
            </g>
        </g>
    </g>
</svg>