<?xml version="1.0" encoding="UTF-8"?>
<svg width="18px" height="18px" viewBox="0 0 18 18" version="1.1" xmlns="http://www.w3.org/2000/svg" xmlns:xlink="http://www.w3.org/1999/xlink">
    <g id="页面-1" stroke="none" stroke-width="1" fill="none" fill-rule="evenodd">
        <g id="方案-6备份-27" transform="translate(-1545.000000, -141.000000)">
            <g id="下拉菜单备份-2" transform="translate(1534.000000, 132.000000)">
                <g id="编组" transform="translate(11.000000, 9.000000)">
                    <rect id="矩形" fill="#D8D8D8" opacity="0" x="0" y="0" width="18" height="18"></rect>
                    <path d="M15.75,14.25 C15.75,15.0784271 15.0784271,15.75 14.25,15.75 L3.75,15.75 C2.92157288,15.75 2.25,15.0784271 2.25,14.25 L2.25,3.75 C2.25,2.92157288 2.92157288,2.25 3.75,2.25 L14.25,2.25 C15.0784271,2.25 15.75,2.92157288 15.75,3.75 L15.75,14.25 Z M14.625,6.75 L3.375,6.75 L3.375,14.25 C3.375,14.4571068 3.54289322,14.625 3.75,14.625 L14.25,14.625 C14.4571068,14.625 14.625,14.4571068 14.625,14.25 L14.625,6.75 Z M11.6639962,7.90951134 C11.9309764,8.0683551 12.0186382,8.41355358 11.8597945,8.68053374 L9.52255671,12.6088979 C9.41666087,12.7868847 9.18652855,12.8453259 9.00854178,12.7394301 C8.95483402,12.7074759 8.90996381,12.6626056 8.87800959,12.6088979 L6.54077181,8.68053374 C6.38192806,8.41355358 6.46958993,8.0683551 6.73657009,7.90951134 C6.98124919,7.76393593 7.29163925,7.8254491 7.46399555,8.04231065 L7.50748835,8.10537156 L9.19975282,10.9510773 L10.8929642,8.10530389 C11.0518142,7.83832534 11.3970145,7.75066666 11.6639962,7.90951134 Z M14.25,3.375 L3.75,3.375 C3.54289322,3.375 3.375,3.54289322 3.375,3.75 L3.375,5.625 L14.625,5.625 L14.625,3.75 C14.625,3.54289322 14.4571068,3.375 14.25,3.375 Z" id="形状结合" fill="#1D2129" fill-rule="nonzero"></path>
                </g>
            </g>
        </g>
    </g>
</svg>