<?xml version="1.0" encoding="UTF-8"?>
<svg width="18px" height="18px" viewBox="0 0 18 18" version="1.1" xmlns="http://www.w3.org/2000/svg" xmlns:xlink="http://www.w3.org/1999/xlink">
    <g id="页面-1" stroke="none" stroke-width="1" fill="none" fill-rule="evenodd">
        <g id="方案-6备份-27" transform="translate(-1545.000000, -105.000000)">
            <g id="下拉菜单备份" transform="translate(1533.000000, 96.000000)">
                <g id="file" transform="translate(12.000000, 9.000000)">
                    <rect id="矩形" fill="#000000" opacity="0" x="0" y="0" width="18" height="18"></rect>
                    <g id="编组-40" transform="translate(3.000000, 1.500000)" fill="#1D2129">
                        <path d="M8.37867966,0 C8.77650439,0 9.15803526,0.158035261 9.43933983,0.439339828 L11.5606602,2.56066017 C11.8419647,2.84196474 12,3.22349561 12,3.62132034 L12,13.5 C12,14.3284271 11.3284271,15 10.5,15 L1.5,15 C0.671572875,15 0,14.3284271 0,13.5 L0,1.5 C0,0.671572875 0.671572875,0 1.5,0 L8.37867966,0 Z M7.629,1.125 L1.5,1.125 C1.31590508,1.125 1.16279372,1.25765637 1.13104175,1.43259328 L1.125,1.5 L1.125,13.5 C1.125,13.6840949 1.25765637,13.8372063 1.43259328,13.8689582 L1.5,13.875 L10.5,13.875 C10.6840949,13.875 10.8372063,13.7423436 10.8689582,13.5674067 L10.875,13.5 L10.875,4.5 L8.19152313,4.5 C7.90675131,4.5 7.67140491,4.28838459 7.6341581,4.01382792 L7.62902313,3.9375 L7.629,1.125 Z M8.56652313,10.5 C8.8771833,10.5 9.12902313,10.7518398 9.12902313,11.0625 C9.12902313,11.3731602 8.8771833,11.625 8.56652313,11.625 L3.69152313,11.625 C3.38086296,11.625 3.12902313,11.3731602 3.12902313,11.0625 C3.12902313,10.7518398 3.38086296,10.5 3.69152313,10.5 L8.56652313,10.5 Z M6.31652313,7.5 C6.6271833,7.5 6.87902313,7.75183983 6.87902313,8.0625 C6.87902313,8.37316017 6.6271833,8.625 6.31652313,8.625 L3.69152313,8.625 C3.38086296,8.625 3.12902313,8.37316017 3.12902313,8.0625 C3.12902313,7.75183983 3.38086296,7.5 3.69152313,7.5 L6.31652313,7.5 Z M8.754,1.345 L8.754,3.375 L10.781,3.375 L10.765165,3.3561553 L8.754,1.345 Z" id="矩形"></path>
                    </g>
                </g>
            </g>
        </g>
    </g>
</svg>