<?xml version="1.0" encoding="UTF-8"?>
<svg width="18px" height="18px" viewBox="0 0 18 18" version="1.1" xmlns="http://www.w3.org/2000/svg" xmlns:xlink="http://www.w3.org/1999/xlink">
    <g id="页面-1" stroke="none" stroke-width="1" fill="none" fill-rule="evenodd">
        <g id="方案-6备份-27" transform="translate(-1545.000000, -213.000000)">
            <g id="下拉菜单备份-4" transform="translate(1533.000000, 204.000000)">
                <g id="编组" transform="translate(12.000000, 9.000000)">
                    <rect id="矩形" x="0" y="0" width="18" height="18"></rect>
                    <path d="M8.4343875,2.0625 C8.74504767,2.0625 8.9968875,2.31433983 8.9968875,2.625 C8.9968875,2.93566017 8.74504767,3.1875 8.4343875,3.1875 L3.3125,3.1875 C3.03635763,3.1875 2.8125,3.41135763 2.8125,3.6875 L2.8125,14.3125 C2.8125,14.5886424 3.03635763,14.8125 3.3125,14.8125 L8.4375,14.8125 C8.74816017,14.8125 9,15.0643398 9,15.375 C9,15.6856602 8.74816017,15.9375 8.4375,15.9375 L3.6875,15.9375 C2.5829305,15.9375 1.6875,15.0420695 1.6875,13.9375 L1.6875,4.0625 C1.6875,2.9579305 2.5829305,2.0625 3.6875,2.0625 L8.4343875,2.0625 Z M13.1704951,5.625 L16.1919417,8.64644661 C16.3872039,8.84170876 16.3872039,9.15829124 16.1919417,9.35355339 L13.1704951,12.375 C12.9508252,12.5946699 12.5946699,12.5946699 12.375,12.375 C12.1553192,12.1553192 12.1552892,11.7991556 12.3749329,11.5794378 L14.3935,9.5585 L6.5625,9.5593875 C6.25183983,9.5593875 6,9.30754767 6,8.9968875 C6,8.68622733 6.25183983,8.4343875 6.5625,8.4343875 L14.3885,8.4335 L12.3750331,6.42046205 C12.1553632,6.20082867 12.1553335,5.84470299 12.3749669,5.62503308 C12.5946699,5.40533009 12.9508252,5.40533009 13.1704951,5.625 Z" id="形状结合" fill="#1D2129" fill-rule="nonzero"></path>
                </g>
            </g>
        </g>
    </g>
</svg>