<?xml version="1.0" encoding="UTF-8"?>
<svg width="18px" height="18px" viewBox="0 0 18 18" version="1.1" xmlns="http://www.w3.org/2000/svg" xmlns:xlink="http://www.w3.org/1999/xlink">
    <g id="页面-1" stroke="none" stroke-width="1" fill="none" fill-rule="evenodd">
        <g id="方案-6备份-27" transform="translate(-1545.000000, -69.000000)">
            <g id="下拉菜单" transform="translate(1533.000000, 60.000000)">
                <g id="编组" transform="translate(12.000000, 9.000000)">
                    <rect id="矩形" fill="#D8D8D8" opacity="0" x="0" y="0" width="18" height="18"></rect>
                    <path d="M15,3 L15,15 C15,15.8284271 14.3284271,16.5 13.5,16.5 L4.5,16.5 C3.67157288,16.5 3,15.8284271 3,15 L3,3 C3,2.17157288 3.67157288,1.5 4.5,1.5 L13.5,1.5 C14.3284271,1.5 15,2.17157288 15,3 Z M6.375,2.625 L4.5,2.625 C4.29289322,2.625 4.125,2.79289322 4.125,3 L4.125,15 C4.125,15.2071068 4.29289322,15.375 4.5,15.375 L6.375,15.375 L6.375,2.625 Z M13.5,2.625 L7.5,2.625 L7.5,15.375 L13.5,15.375 C13.7071068,15.375 13.875,15.2071068 13.875,15 L13.875,3 C13.875,2.79289322 13.7071068,2.625 13.5,2.625 Z M12.375,8.4375 C12.375,8.74816017 12.1231602,9 11.8125,9 L9.5625,9 C9.25183983,9 9,8.74816017 9,8.4375 C9,8.12683983 9.25183983,7.875 9.5625,7.875 L11.8125,7.875 C12.1231602,7.875 12.375,8.12683983 12.375,8.4375 Z M12.375,5.8125 C12.375,6.12316017 12.1231602,6.375 11.8125,6.375 L9.5625,6.375 C9.25183983,6.375 9,6.12316017 9,5.8125 C9,5.50183983 9.25183983,5.25 9.5625,5.25 L11.8125,5.25 C12.1231602,5.25 12.375,5.50183983 12.375,5.8125 Z" id="形状" fill="#1D2129" fill-rule="nonzero"></path>
                </g>
            </g>
        </g>
    </g>
</svg>